<svg xmlns="http://www.w3.org/2000/svg" xmlns:xlink="http://www.w3.org/1999/xlink" id="Layer_1" x="0px" y="0px" viewBox="0 0 1743.8 938.5" style="enable-background:new 0 0 1743.8 938.5;" xml:space="preserve"><style type="text/css">	.st0{fill:#D0DFEF;}	.st1{fill:#053770;}	.st2{fill:#FFFFFF;}	.st3{fill:#F5D1C5;}	.st4{fill:#FEDACE;}	.st5{fill:#848484;}	.st6{fill:#9B9B9B;}	.st7{fill:#F8F8F8;}	.st8{fill:#353535;}	.st9{fill:#CAD6E6;}	.st10{fill:#231F20;}	.st11{fill:#A28B8B;}	.st12{fill:#F8F0F8;}	.st13{fill:#7E7E7E;}	.st14{fill:#FF5C00;}	.st15{fill:#AE3215;}	.st16{fill:#F4D7CB;}	.st17{fill:#D3DFEE;}	.st18{fill:#636971;}	.st19{fill:#979797;}	.st20{fill:#BAD0E8;}	.st21{fill:#FF8540;}	.st22{fill:#FED4C6;}	.st23{fill:#A38C8C;}	.st24{fill:#C02001;}	.st25{fill:#DB7F6D;}	.st26{fill:#BCBCBC;}	.st27{fill:#ACACAC;}	.st28{fill:#FF8744;}	.st29{fill:#787878;}	.st30{fill:#FFD9C4;}	.st31{fill:#CBCBCB;}	.st32{fill:#878787;}	.st33{fill:#FFC5A4;}	.st34{fill:#D7705C;}</style><g>	<g>		<path class="st0" d="M1603,124.8c-80.7-15-160.2,5.8-216.4-3.6c-56.2-9.3-120.5-13.6-163.4,23.9c-41.2,36.1-47.2,97.2-73.4,145.3   c-14.5,26.6-35.3,49.3-51.2,75c-22.3,35.9-34.7,77.1-44.4,118.3c-15.2,64.7-22.7,137.6,13.3,193.5c19.5,30.2,49.9,52,82.5,67.2   c101.3,47,229.3,29.8,314.5-42.4c17.8-15.1,34.1-32.5,54.5-43.9c23.5-13.2,50.9-17.6,75-29.7c47.3-23.8,75.6-74,91.9-124.4   c28.8-89,28.8-186.3,5-276.7c-6.1-23.3-14-46.6-28.2-66C1648.5,141.8,1633.4,129.5,1603,124.8"></path>	</g></g><g>	<polygon class="st1" points="1293.2,833.3 1293.2,841 1293.6,833.3  "></polygon></g><g>	<path class="st2" d="M1282.3,840c-0.5-17.5,2.1-32.9,7.4-44.5l0.5,0.2c-5.3,11.5-7.9,26.9-7.4,44.3L1282.3,840z"></path></g><g>	<path class="st3" d="M84.2,188.2c-0.7-0.6-1.4-1.2-2.1-1.8c-0.3-0.3-0.6-0.5-1-0.7c-0.4-0.1-0.8-0.2-1.1,0.1  c-0.4,0.2-0.5,0.7-0.5,1.1c-0.2,1.6,0.2,3.1,1.1,4.5c0.8,1.3,2.8,2.6,4.2,3.3"></path></g><g>	<path class="st3" d="M50.7,89.4c-0.8,0.1-1.6-0.2-2.4-0.2c-0.8-0.1-1.7,0.1-2.2,0.8c-0.5,0.7-0.3,1.7,0.2,2.4s1.3,1.1,2.1,1.4  s1.6,0.6,2.3,1.2c-1,0.5-2,1.1-2.8,1.8c-0.3,0.3-0.6,0.6-0.8,0.9c-0.4,0.9,0,2.1,0.9,2.7s1.8,0.8,2.8,1.1"></path></g><g>	<path class="st4" d="M429.5,147.7H118.1c-14.9,0-26.9,12-26.9,26.9v305.5c0,14.9,12,26.9,26.9,26.9h311.4c14.9,0,26.9-12,26.9-26.9  V174.6C456.4,159.8,444.4,147.7,429.5,147.7z"></path></g><g>	<g>		<ellipse class="st5" cx="346.7" cy="443.6" rx="64.8" ry="19.1"></ellipse>	</g>	<g>		<path class="st6" d="M387.6,341.1h-81.9c-8.4,0-15.2-6.8-15.2-15.2V198.2c0-8.4,6.8-15.2,15.2-15.2h81.9c8.4,0,15.2,6.8,15.2,15.2   V326C402.9,334.3,396.1,341.1,387.6,341.1z"></path>	</g>	<g>		<path class="st7" d="M384.5,293.5H309c-7,0-12.6-5.6-12.6-12.6V202c0-7,5.6-12.6,12.6-12.6h75.5c7,0,12.6,5.6,12.6,12.6v78.9   C397,287.9,391.4,293.5,384.5,293.5z"></path>	</g>	<g>		<path class="st8" d="M385.1,327.3h-12.7c-2.5,0-4.5-2-4.5-4.5V310c0-2.5,2-4.5,4.5-4.5h12.7c2.5,0,4.5,2,4.5,4.5v12.7   C389.6,325.2,387.6,327.3,385.1,327.3z"></path>	</g>	<g>		<path class="st9" d="M386,224h-55.9c-1,0-1.8-0.8-1.8-1.8v-14.6c0-1,0.8-1.8,1.8-1.8H386c1,0,1.8,0.8,1.8,1.8v14.6   C387.8,223.2,387,224,386,224z"></path>	</g>	<g>		<path class="st9" d="M386,247.6h-55.9c-1,0-1.8-0.8-1.8-1.8v-14.6c0-1,0.8-1.8,1.8-1.8H386c1,0,1.8,0.8,1.8,1.8v14.6   C387.8,246.8,387,247.6,386,247.6z"></path>	</g>	<g>		<path class="st9" d="M386,271.3h-55.9c-1,0-1.8-0.8-1.8-1.8v-14.6c0-1,0.8-1.8,1.8-1.8H386c1,0,1.8,0.8,1.8,1.8v14.6   C387.8,270.5,387,271.3,386,271.3z"></path>	</g>	<g>		<circle class="st9" cx="314.7" cy="214.9" r="9.1"></circle>	</g>	<g>		<circle class="st9" cx="314.7" cy="238.5" r="9.1"></circle>	</g>	<g>		<circle class="st9" cx="314.7" cy="262.2" r="9.1"></circle>	</g>	<g>		<rect x="341.1" y="338.6" class="st6" width="11.1" height="105"></rect>	</g></g><g>	<g>		<circle class="st1" cx="140.6" cy="133.3" r="87"></circle>	</g>	<g>		<path class="st3" d="M84.8,126c-2.2-11.8-3.4-25.8-2.8-37.8c0.1-1.5,0.2-3-0.4-4.4S79.4,81.4,78,82c-1.1,0.4-1.6,1.6-2.1,2.7   c-0.9,2.3-1.8,4.6-2.3,7c-0.6,3.4-0.3,9.4-0.3,9.4s1,0.8-2.3,1.9s-16.1,2.1-16.1,2.1c1.8,7.1,7.3,16.6,11.8,22.5L84.8,126z"></path>	</g>	<g>		<path class="st3" d="M131.5,97.5l2.1,22.4h0.1c1.9,1.5,4.2,2.7,6.6,3.1c1.9,0.3,3.9,0.3,5.8,0.1c1.8-0.2,4.4-0.7,6.1-1.3   c2.7-0.9,4.2-1.5,6.3-4.3l0,0l-2.1-22.4L131.5,97.5z"></path>	</g>	<g>		<path class="st3" d="M115.6,65.8c3.1,12.9,7.7,42.8,28.7,40.9c21.1-2,23.1-30.8,20.9-49.1c-0.7-5.9-5.5-14.4-13.3-11.7   C142.5,47.7,106.1,41.5,115.6,65.8z"></path>	</g>	<g>		<path class="st3" d="M118.3,74c-2.4-0.3-5.5,1.7-6.5,3.9s-0.6,4.9,0.6,6.9s3.3,3.5,5.6,4.4c1.5,0.6,3.4,0.8,4.5-0.4"></path>	</g>	<g>		<path class="st3" d="M165.2,68.1c1.6,0,3.1,0.7,4.3,1.7c2.7,2.2,3.9,6.2,2.5,9.4c-1.4,3.2-5.4,5-8.7,3.7"></path>	</g>	<g>		<g>			<path class="st10" d="M141.9,70.7c0,3.8,1.2,7.6,3.5,10.7c0.8,1,2.5,2.7,1,3.8c-1.2,1-2.8-0.1-3.3-1.3c-0.4-1.1-2.1-0.4-1.7,0.6    c0.6,1.4,1.8,2.6,3.4,2.8c1.5,0.2,3.1-0.6,3.7-2c0.8-1.7-0.3-3.3-1.3-4.6c-1.1-1.4-1.9-2.8-2.5-4.4c-0.7-1.9-1-3.8-1-5.8    c0-0.5-0.5-0.9-1-0.8C142.2,69.8,141.9,70.3,141.9,70.7L141.9,70.7z"></path>		</g>	</g>	<g>		<g>			<path class="st10" d="M145.6,98.8c3.2,0,6.3-2,7.7-4.9c0.5-1-1.1-1.8-1.6-0.8c-1.1,2.4-3.6,3.9-6.2,3.9c-0.5,0-0.9,0.5-0.8,1    C144.6,98.5,145.1,98.8,145.6,98.8L145.6,98.8z"></path>		</g>	</g>	<g>		<path class="st10" d="M109.4,59.3c-1.4,3.8-0.9,8.2,1.2,11.7c2.1,3.5,4.4,4.7,8.4,5.1c-2.9-6.1-3.7-12.5-2.2-19.5   c0.3-1.6,0.9-3.3,2-4.5c2.4-2.6,6.7-2.4,10-0.9c3.3,1.5,6,3.9,9.3,5.2c4.2,1.7,9.2,1.4,13.2-0.8c-0.9-0.6-1.6-1.5-1.9-2.6   c4.6,1.5,9.6,1.7,14.3,0.4c1.1,5.3,1.8,10.7,2,16.1c2.3-2.3,3.1-5.7,3.3-9c0.2-3.6-0.2-7.2-0.5-10.8c0.7-0.1,1.4,0.2,2,0.6   c-0.2-2.8-1.2-5-3.7-7.5c-2.1-2.1-3.7-3.1-6.6-3.7c0.9-0.6,2.5-0.6,5-1.2c-3.8-1.8-6.8-3.7-10.8-3.9c0.3-0.9,2.5-2.6,3.3-3   c-3.7-2.2-8.6-2.3-12.2-2.6c-3-0.3-6-0.2-9,0.1c0.1-0.5,0.7-2.5,0.8-3.1C134.1,28,129,29,125,30.1c-4.9,1.4-15.5,6-17.2,10.7   C105.8,45.6,107,54.8,109.4,59.3"></path>	</g>	<g>		<path class="st11" d="M132,103.4c4.5,4.5,16.7,5.6,20.3,0.8c-3.6,10.2-19.6,6.9-19.6,6.9L132,103.4z"></path>	</g>	<g>		<path class="st9" d="M207.1,146.6c-9.6-16-26.7-29-45.1-31.7c-7.4-1.1-17.9-0.6-25.2,0.8c-15.6,2.9-26.5,9.5-37.1,21.3   c-2.4,2.7-4.5,5.7-6.5,8.8c-2-8.3-3.6-16.2-4.5-22.2c-12,1.9-18.8,2.7-29.3,2.8c-0.5,0-1,0.2-1.3,0.6c-0.1,0.2-0.1,0.5-0.1,0.8   c0.6,16.4,1.8,30,4.4,43.9c3.7,7.5,8.5,14.4,14.1,20.4c5.7,6.1,12.2,11.4,19.4,15.7c3.3,2,6.8,3.8,10.4,5.3   c12.9,5.5,27.3,8,42.2,6.6c19.1-1.8,36.2-9.6,49.6-21.5c8.9-7.9,16.1-17.5,21.2-28.3C216.1,162.2,211.9,154.5,207.1,146.6z"></path>	</g>	<g>		<g>			<path class="st2" d="M92.9,144c2.2,10.6,4.5,21.4,8.5,31.5c0.1,0.3,0.6,0.2,0.5-0.1c-4-10.1-6.3-20.9-8.5-31.5    C93.3,143.5,92.8,143.7,92.9,144L92.9,144z"></path>		</g>	</g>	<g>		<g>			<path class="st2" d="M183.1,154.8c5.1,14.5,10.2,29.1,13.5,44.1c0.1,0.3,0.5,0.2,0.5-0.1c-3.3-15-8.4-29.6-13.5-44.1    C183.5,154.4,183,154.5,183.1,154.8L183.1,154.8z"></path>		</g>	</g>	<g>		<path class="st2" d="M110.8,206.7l-0.4-0.2c2.9-5.8,8.5-28.4,6.3-45.6l0.5-0.1C119.4,178.2,113.7,200.9,110.8,206.7z"></path>	</g>	<g>		<g>			<path class="st8" d="M71,111.4l-14.2,1.3c-2.7,0.3-5.1-1.7-5.4-4.5l-2.6-28.4c-0.3-2.7,1.7-5.1,4.5-5.4l14.2-1.3    c2.7-0.3,5.1,1.7,5.4,4.5l2.6,28.4C75.7,108.7,73.7,111.1,71,111.4z"></path>		</g>		<g>			<path class="st2" d="M69.8,109.1l-12.3,1.2c-2.1,0.2-3.9-1.3-4.1-3.4L51,80.8c-0.2-2.1,1.3-3.9,3.4-4.1l12.3-1.1    c2.1-0.2,3.9,1.3,4.1,3.4l2.4,26.1C73.4,107.1,71.9,108.9,69.8,109.1z"></path>		</g>		<g>			<g>				<path d="M55.3,96.5c1.6-0.1,3.1-0.3,4.7-0.4c0,0,0.4,4.6,0.4,4.7c-1.6,0.1-3.1,0.3-4.7,0.4C55.6,99.6,55.4,98.1,55.3,96.5z      M59.7,100.2c0-0.1-0.3-3.3-0.3-3.4c-1.1,0.1-2.2,0.2-3.4,0.3l0,0c0.1,1.1,0.2,2.2,0.3,3.3l0,0l0,0l0,0     C57.5,100.4,58.6,100.3,59.7,100.2z"></path>			</g>			<g>				<path d="M59.1,86.6c0.1,1.6,0.3,3.1,0.4,4.7c-1.6,0.1-3.1,0.3-4.7,0.4l0,0l0,0l0,0c-0.1-1.5-0.3-3.1-0.4-4.6l0,0     C54.5,87,59.1,86.6,59.1,86.6z M55.5,91c1.1-0.1,2.3-0.2,3.4-0.3l0,0c-0.1-1.1-0.2-2.2-0.3-3.3l0,0l0,0l0,0     c-0.1,0-3.3,0.3-3.4,0.3C55.3,88.8,55.4,89.9,55.5,91z"></path>			</g>			<g>				<path d="M69.1,90.4c-1.6,0.1-3.1,0.3-4.7,0.4c0,0-0.4-4.6-0.4-4.7c0.1,0,4.6-0.4,4.7-0.4C68.8,87.3,68.9,88.8,69.1,90.4z      M64.6,86.7c0,0.1,0.3,3.3,0.3,3.4c1.1-0.1,2.2-0.2,3.4-0.3c0-0.1-0.3-3.3-0.3-3.4C66.9,86.5,65.8,86.6,64.6,86.7z"></path>			</g>			<g>				<path d="M63.2,93C63.1,93,63.1,93,63.2,93c-0.5,0.1-0.9,0.1-1.3,0.1h-0.1c0,0.2,0,0.4,0.1,0.7h-0.1c-0.4,0-0.8,0.1-1.2,0.1     c0,0,0,0-0.1,0l0,0v-0.1c0-0.2,0-0.3,0-0.5v-0.1c0.1,0,0.2,0,0.2,0c0.1,0,0.1,0,0.2,0s0.1,0,0.2,0c0-0.2,0-0.4-0.1-0.7     c0.2,0,0.4,0,0.7-0.1c0-0.1,0-0.6-0.1-0.7c-0.4,0-0.9,0.1-1.3,0.1l0,0l0,0l0,0c0-0.4-0.1-0.8-0.1-1.3l0,0c0.2,0,0.4,0,0.7-0.1     c0,0.2,0,0.4,0.1,0.7c0.1,0,0.6,0,0.7-0.1c0-0.4-0.1-0.9-0.1-1.3h0.1c0.2,0,0.3,0,0.5,0c0,0,0,0,0.1,0c0-0.5-0.1-0.9-0.1-1.4     l0,0c0.2,0,0.4,0,0.7-0.1l0,0c0-0.4-0.1-0.8-0.1-1.3l0,0l0,0l0,0c-0.2,0-0.4,0-0.7,0.1l0,0c0-0.2,0-0.4-0.1-0.7l0,0l0,0     c0,0,0,0,0.1,0c0.4,0,0.8-0.1,1.3-0.1l0,0c0.1,1.1,0.2,2.2,0.3,3.4c-0.2,0-0.4,0-0.7,0.1c0,0,0,0,0,0.1c0,0.2,0,0.4,0.1,0.6l0,0     l0,0c-0.2,0-0.4,0-0.6,0.1c0,0,0,0-0.1,0c0.1,0.7,0.1,1.4,0.2,2c0.2,0,0.4,0,0.7-0.1v0.1C63.1,92.6,63.1,92.8,63.2,93L63.2,93     L63.2,93z"></path>			</g>			<g>				<path d="M67.6,96.7C67.6,96.7,67.5,96.7,67.6,96.7c-0.5,0-0.9,0.1-1.3,0.1c0,0,0,0-0.1,0c0,0.2,0,0.4,0.1,0.7     c-0.2,0-0.3,0-0.5,0s-0.3,0-0.5,0c-0.1,0-0.3,0-0.5,0c0,0.5,0.1,0.9,0.1,1.4c-0.1,0-0.3,0-0.4,0s-0.3,0-0.4,0s-0.3,0-0.4,0     s-0.3,0-0.4,0s-0.3,0-0.4,0c0,0.2,0,0.5,0.1,0.7l0,0c-0.2,0-0.4,0-0.7,0.1c0-0.1-0.2-1.9-0.2-2c0.2,0,0.4,0,0.7-0.1     c0,0.2,0,0.4,0.1,0.7c0.2,0,0.4,0,0.7-0.1c0-0.2,0-0.4-0.1-0.7c0.1,0,0.2,0,0.2,0c0.1,0,0.1,0,0.2,0s0.1,0,0.2,0     c0-0.1,0-0.6-0.1-0.7c-0.2,0-0.4,0-0.7,0.1c0-0.1-0.1-0.6-0.1-0.7c0.7-0.1,1.3-0.1,2-0.2c0-0.1,0-0.6-0.1-0.7     c-0.1,0-0.2,0-0.3,0c-0.1,0-0.2,0-0.3,0c0-0.2,0-0.4-0.1-0.7c0.1,0,1.2-0.1,1.3-0.1c0,0.1,0,0.2,0,0.3c0,0.1,0,0.2,0,0.3     c0,0.1,0,0.2,0,0.3c0,0.1,0,0.2,0,0.3c0.5,0,0.9-0.1,1.3-0.1l0,0C67.6,96.3,67.6,96.5,67.6,96.7L67.6,96.7L67.6,96.7z"></path>			</g>			<g>				<path d="M68.6,92.5L68.6,92.5c0,0.2,0,0.4,0.1,0.6l0,0c-0.2,0-0.4,0-0.7,0.1c0,0.1,0,0.6,0.1,0.7c0.2,0,0.4,0,0.7-0.1     c0,0.2,0,0.4,0.1,0.7c-0.4,0-0.9,0.1-1.3,0.1c0,0.2,0,0.4,0.1,0.7c-0.2,0-0.4,0-0.7,0.1c0,0-0.1-1.2-0.1-1.3     c0.2,0,0.4,0,0.7-0.1c0-0.2,0-0.4-0.1-0.7c-0.1,0-0.6,0-0.7,0.1c0,0.2,0,0.4,0.1,0.7c-0.1,0-0.6,0.1-0.7,0.1     c-0.1-0.9-0.2-1.8-0.2-2.7c0.2,0,0.4,0,0.7-0.1c0,0.2,0,0.3,0,0.4c0,0.2,0,0.3,0,0.5c0,0.1,0,0.3,0,0.5h0.1     C67.2,92.6,67.9,92.6,68.6,92.5C68.5,92.5,68.5,92.5,68.6,92.5L68.6,92.5z"></path>			</g>			<g>				<path d="M67.6,96.7L67.6,96.7c0.2,0,0.4,0,0.6-0.1l0,0c0,0.4,0.1,0.9,0.1,1.3c0.1,0,0.2,0,0.3,0c0.1,0,0.2,0,0.3,0     c0.1,0,0.2,0,0.3,0c0.1,0,0.2,0,0.3,0c0.1,0,0.2,0,0.3,0c0,0.2,0,0.4,0.1,0.7h-0.1c-0.4,0-0.8,0.1-1.2,0.1h-0.1     c0,0.2,0,0.5,0.1,0.7c0.2,0,0.4,0,0.7-0.1c0,0.1,0.1,0.6,0.1,0.7c-0.9,0.1-1.8,0.2-2.7,0.2c0-0.4-0.1-0.9-0.1-1.3     c0.1,0,0.6-0.1,0.7-0.1c0,0.2,0,0.4,0.1,0.7c0.2,0,0.4,0,0.7-0.1v-0.1c0-0.4-0.1-0.7-0.1-1.1C67.7,97.7,67.6,97.3,67.6,96.7     C67.6,96.8,67.6,96.7,67.6,96.7L67.6,96.7z"></path>			</g>			<g>				<path d="M63.2,93L63.2,93c0.5,0,0.9-0.1,1.3-0.1c0,0,0,0,0.1,0c0-0.1,0-0.1,0-0.2s0-0.1,0-0.2s0-0.2,0-0.2c0-0.1,0-0.1,0-0.2     s0-0.1,0-0.2s0-0.1,0-0.2c0.2,0,0.4,0,0.7-0.1c0,0,0.3,2.6,0.3,2.7c-0.2,0-0.4,0-0.7,0.1c0-0.2,0-0.4-0.1-0.7     c-0.2,0-0.5,0-0.7,0.1c0.1,0.7,0.1,1.3,0.2,2c-0.1,0-1.3,0.1-1.3,0.1c0-0.2,0-0.4-0.1-0.7c0.2,0,0.4,0,0.7-0.1     c0-0.1,0-0.6-0.1-0.7c-0.2,0-0.4,0-0.7,0.1c0-0.2,0-0.4-0.1-0.7c0.2,0,0.4,0,0.7-0.1v-0.1C63.2,93.4,63.2,93.3,63.2,93     C63.2,93.1,63.2,93,63.2,93L63.2,93z"></path>			</g>			<g>				<path d="M59.8,94c0.2,0,0.4,0,0.7-0.1l0,0V94c0,0.4,0.1,0.8,0.1,1.2v0.1l0,0h-0.1c-0.8,0.1-1.7,0.2-2.5,0.2h-0.1     c0-0.2,0-0.4-0.1-0.7c-0.2,0-0.4,0-0.7,0.1c0-0.2,0-0.4-0.1-0.7c0.4,0,0.9-0.1,1.3-0.1c0,0.1,0,0.1,0,0.2s0,0.1,0,0.2     s0,0.1,0,0.2c0.5,0,0.9-0.1,1.4-0.1v-0.1C59.9,94.4,59.9,94.3,59.8,94C59.8,94.1,59.8,94,59.8,94L59.8,94z"></path>			</g>			<g>				<path d="M55.2,95.1c0-0.5-0.1-0.9-0.1-1.3c0.2,0,0.4,0,0.7-0.1c0-0.2,0-0.4-0.1-0.7c0.2,0,0.4,0,0.7-0.1     c0.1,0.9,0.2,1.8,0.2,2.7c-0.2,0-0.4,0-0.7,0.1c0-0.2,0-0.4-0.1-0.7c-0.1,0-0.2,0-0.2,0c-0.1,0-0.1,0-0.2,0     C55.3,95.1,55.3,95.1,55.2,95.1z"></path>			</g>			<g>				<path d="M60.6,87.1L60.6,87.1c0.5,0,0.9-0.1,1.4-0.1l0,0c0,0.5,0.1,0.9,0.1,1.4l0,0c-0.2,0-0.4,0-0.7,0.1c0-0.2,0-0.4-0.1-0.7     c0,0,0,0-0.1,0c-0.2,0-0.4,0-0.6,0.1l0,0l0,0v-0.1C60.6,87.5,60.6,87.4,60.6,87.1C60.6,87.2,60.6,87.1,60.6,87.1L60.6,87.1z"></path>			</g>			<g>				<path d="M59.1,93.4c-0.1,0-0.1,0-0.2,0c-0.2,0-0.3,0-0.5,0c0-0.1-0.1-1.3-0.1-1.3c0.4,0,0.9-0.1,1.3-0.1c0,0,0.1,0.6,0.1,0.7     c-0.2,0-0.4,0-0.7,0.1C59.1,92.9,59.1,93.2,59.1,93.4L59.1,93.4z"></path>			</g>			<g>				<path d="M68.6,92.5L68.6,92.5c0-0.5-0.1-0.9-0.1-1.3v-0.1c0.2,0,0.4,0,0.7-0.1c0,0.4,0.1,0.9,0.1,1.3l0,0     C69,92.5,68.8,92.5,68.6,92.5L68.6,92.5L68.6,92.5z"></path>			</g>			<g>				<path d="M63.1,99.8c0.4,0,0.9-0.1,1.3-0.1c0,0.2,0,0.4,0.1,0.7c-0.1,0-1.3,0.1-1.3,0.1C63.1,100.3,63.1,100.1,63.1,99.8     L63.1,99.8z"></path>			</g>			<g>				<path d="M62.9,90.3c0.2,0,0.4,0,0.6,0h0.1c0,0,0.1,1.2,0.1,1.3c-0.2,0-0.4,0-0.7,0.1v-0.1C63,91.2,63,90.8,62.9,90.3     C62.9,90.4,62.9,90.3,62.9,90.3L62.9,90.3z"></path>			</g>			<g>				<path d="M61.4,96.6c0-0.2,0-0.4-0.1-0.6l0,0c0.4,0,0.9-0.1,1.3-0.1c0,0.2,0,0.4,0.1,0.7C62.3,96.5,61.9,96.5,61.4,96.6     L61.4,96.6z"></path>			</g>			<g>				<path d="M59.1,93.4L59.1,93.4c0.2,0,0.4,0,0.6,0h0.1v0.1c0,0.2,0,0.4,0,0.5v0.1l0,0c-0.2,0-0.4,0-0.6,0.1h-0.1     C59.1,93.8,59.1,93.6,59.1,93.4L59.1,93.4z"></path>			</g>			<g>				<path d="M61.5,97.3L61.5,97.3c-0.2,0-0.4,0-0.6,0h-0.1c0-0.1-0.1-0.6-0.1-0.7c0.2,0,0.4,0,0.7-0.1l0,0c0,0.1,0,0.2,0,0.3     C61.5,97,61.5,97.1,61.5,97.3L61.5,97.3z"></path>			</g>			<g>				<path d="M67.8,91.9c-0.2,0-0.4,0-0.7,0.1c0-0.2,0-0.4-0.1-0.7c0,0,0.6-0.1,0.7-0.1C67.8,91.5,67.8,91.7,67.8,91.9z"></path>			</g>			<g>				<path d="M60.6,95.3c0.1,0,0.2,0,0.3,0c0.1,0,0.3,0,0.4,0l0,0c0,0.2,0,0.4,0.1,0.6c0,0,0,0,0,0.1c-0.2,0-0.4,0-0.7,0.1V96     C60.7,95.7,60.7,95.5,60.6,95.3C60.6,95.4,60.6,95.3,60.6,95.3L60.6,95.3z"></path>			</g>			<g>				<path d="M60.1,89.2c0.2,0,0.4,0,0.7-0.1c0,0.2,0,0.4,0.1,0.7c-0.2,0-0.4,0-0.7,0.1C60.1,89.7,60.1,89.4,60.1,89.2z"></path>			</g>			<g>				<path d="M60.6,87.8C60.6,87.8,60.6,87.9,60.6,87.8c0,0.2,0,0.4,0,0.6c0,0,0,0,0,0.1c-0.2,0-0.4,0-0.7,0.1c0-0.2,0-0.4-0.1-0.7     l0,0C60.2,87.8,60.4,87.8,60.6,87.8L60.6,87.8L60.6,87.8z"></path>			</g>			<g>				<path d="M60.6,87.1c-0.2,0-0.4,0-0.7,0.1c0-0.2,0-0.4-0.1-0.7c0.2,0,0.4,0,0.7-0.1v0.1C60.5,86.7,60.5,86.9,60.6,87.1L60.6,87.1     L60.6,87.1z"></path>			</g>			<g>				<path d="M61.3,95.2c0-0.2,0-0.4-0.1-0.7c0,0,0.6-0.1,0.7-0.1c0,0.2,0,0.4,0.1,0.7C61.8,95.2,61.5,95.2,61.3,95.2L61.3,95.2z"></path>			</g>			<g>				<path d="M61.8,100c0.2,0,0.4,0,0.7-0.1c0,0,0.1,0.6,0.1,0.7c-0.2,0-0.4,0-0.7,0.1C61.8,100.4,61.8,100.2,61.8,100z"></path>			</g>			<g>				<path d="M57.7,92.9c0,0.2,0,0.4,0.1,0.7c0,0-0.5,0.1-0.7,0.1c0,0-0.1-0.5-0.1-0.7C57.1,92.9,57.6,92.8,57.7,92.9z"></path>			</g>			<g>				<path d="M68.8,95.2c0,0.2,0,0.4,0.1,0.7c-0.2,0-0.4,0-0.7,0.1c0,0-0.1-0.5-0.1-0.7C68.2,95.3,68.7,95.2,68.8,95.2z"></path>			</g>			<g>				<path d="M61.5,97.3L61.5,97.3c0.3,0,0.4,0,0.6,0h0.1c0,0.1,0.1,0.6,0.1,0.7c-0.2,0-0.4,0-0.7,0.1C61.5,97.7,61.5,97.5,61.5,97.3     L61.5,97.3z"></path>			</g>			<g>				<path d="M65.8,99.6c-0.2,0-0.4,0-0.7,0.1c0-0.1-0.1-0.6-0.1-0.7c0.1,0,0.6-0.1,0.7-0.1C65.8,99.1,65.8,99.4,65.8,99.6z"></path>			</g>			<g>				<path d="M57,99.7c-0.1-0.7-0.1-1.3-0.2-2c0.1,0,1.9-0.2,2-0.2c0,0,0.2,1.9,0.2,2C58.3,99.6,57.6,99.7,57,99.7z"></path>			</g>			<g>				<path d="M57.9,88.1c0.1,0.7,0.1,1.3,0.2,2c-0.7,0.1-1.3,0.1-2,0.2c0,0-0.2-1.9-0.2-2S57.8,88,57.9,88.1z"></path>			</g>			<g>				<path d="M65.6,89.4c-0.1-0.7-0.1-1.3-0.2-2c0,0,1.9-0.2,2-0.2c0.1,0.7,0.1,1.3,0.2,2C66.9,89.3,66.2,89.3,65.6,89.4z"></path>			</g>		</g>	</g>	<g>		<path class="st10" d="M127,76.7c0.4,0.3,1,0.3,1.3-0.2c0.6-1.1,1.6-1.7,2.7-2.1c0,0.3,0,0.7,0,1c0,0.8,0.2,1.6,0.8,2.2   c1.1,1,2.9,0.6,3.8-0.4c0.5-0.6,0.8-1.4,0.8-2.2c0-0.4,0-0.8,0-1.3c0-0.4,0-0.9-0.3-1.3c-0.6-0.8-1.6-0.5-2.4-0.4   c-0.9,0.1-1.8,0.3-2.6,0.5c-1.6,0.5-3.3,1.4-4.1,2.9C126.6,75.9,126.6,76.4,127,76.7z M132.9,76.4L132.9,76.4L132.9,76.4z"></path>	</g>	<g>		<path class="st10" d="M148.8,73.6c0.4,0.3,1,0.3,1.3-0.2c0.6-1.1,1.6-1.7,2.7-2.1c0,0.3,0,0.7,0,1c0,0.8,0.2,1.6,0.8,2.2   c1.1,1,2.9,0.6,3.8-0.4c0.5-0.6,0.8-1.4,0.8-2.2c0-0.4,0-0.8,0-1.3c0-0.4,0-0.9-0.3-1.3c-0.6-0.8-1.6-0.5-2.4-0.4   c-0.9,0.1-1.8,0.3-2.6,0.5c-1.6,0.5-3.3,1.4-4.1,2.9C148.4,72.7,148.4,73.2,148.8,73.6z M154.7,73.2L154.7,73.2L154.7,73.2z"></path>	</g></g><g>	<g>		<ellipse class="st5" cx="200.9" cy="443.6" rx="64.8" ry="19.1"></ellipse>	</g>	<g>		<path class="st6" d="M241.9,341.1H160c-8.4,0-15.2-6.8-15.2-15.2V198.2c0-8.4,6.8-15.2,15.2-15.2h81.9c8.4,0,15.2,6.8,15.2,15.2   V326C257.1,334.3,250.3,341.1,241.9,341.1z"></path>	</g>	<g>		<path class="st7" d="M238.7,293.5h-75.5c-7,0-12.6-5.6-12.6-12.6V202c0-7,5.6-12.6,12.6-12.6h75.5c7,0,12.6,5.6,12.6,12.6v78.9   C251.3,287.9,245.6,293.5,238.7,293.5z"></path>	</g>	<g>		<path class="st8" d="M239.3,327.3h-12.7c-2.5,0-4.5-2-4.5-4.5V310c0-2.5,2-4.5,4.5-4.5h12.7c2.5,0,4.5,2,4.5,4.5v12.7   C243.8,325.2,241.8,327.3,239.3,327.3z"></path>	</g>	<g>		<path class="st9" d="M240.2,224h-55.9c-1,0-1.8-0.8-1.8-1.8v-14.6c0-1,0.8-1.8,1.8-1.8h55.9c1,0,1.8,0.8,1.8,1.8v14.6   C242,223.2,241.2,224,240.2,224z"></path>	</g>	<g>		<path class="st9" d="M240.2,247.6h-55.9c-1,0-1.8-0.8-1.8-1.8v-14.6c0-1,0.8-1.8,1.8-1.8h55.9c1,0,1.8,0.8,1.8,1.8v14.6   C242,246.8,241.2,247.6,240.2,247.6z"></path>	</g>	<g>		<path class="st9" d="M240.2,271.3h-55.9c-1,0-1.8-0.8-1.8-1.8v-14.6c0-1,0.8-1.8,1.8-1.8h55.9c1,0,1.8,0.8,1.8,1.8v14.6   C242,270.5,241.2,271.3,240.2,271.3z"></path>	</g>	<g>		<circle class="st9" cx="169" cy="214.9" r="9.1"></circle>	</g>	<g>		<circle class="st9" cx="169" cy="238.5" r="9.1"></circle>	</g>	<g>		<circle class="st9" cx="169" cy="262.2" r="9.1"></circle>	</g>	<g>		<rect x="195.4" y="338.6" class="st6" width="11.1" height="105"></rect>	</g></g><g>	<g>		<g>			<g>				<path class="st12" d="M445.5,540.1c-17.3-68.4-14.2-141.7,8.9-208.4c11.3-32.5,28.2-64.6,56.2-84.8     c18.9-13.6,41.7-20.9,62.5-31.5c35.6-18.1,65.3-45.6,93.2-74c22.4-22.9,45-47.4,74.7-59.7c23.7-9.8,50.1-11,75.8-11.6     c40.5-1,81.6-1,120.8,9.1s76.9,31.4,99,65.2c27.7,42.3,26.9,97,17.1,146.5c-4.9,24.9-12,50.3-7.7,75.3     c3.2,18.8,12.5,36,18.7,54.1c19.2,56.5,6,120.3-24.3,171.9c-32,54.4-82.5,97.8-141.4,121.3s-125.6,27-186.6,9.7     C608.6,693.8,491.8,683.1,445.5,540.1"></path>			</g>		</g>		<g>			<g>				<path class="st6" d="M911.6,153H560.1c-15.7,0-28.3,12.7-28.3,28.3V315c0,15.7,12.7,28.3,28.3,28.3h351.5     c15.7,0,28.3-12.7,28.3-28.3V181.4C940,165.7,927.3,153,911.6,153z"></path>			</g>			<g>				<path class="st7" d="M908.1,161H563.7c-12.6,0-22.7,10.2-22.7,22.7v128.8c0,12.6,10.2,22.7,22.7,22.7h344.4     c12.6,0,22.7-10.2,22.7-22.7V183.8C930.8,171.2,920.6,161,908.1,161z"></path>			</g>			<g>				<g>					<path class="st0" d="M713.5,198.2H563.8c-3,0-5.4-2.4-5.4-5.4v-5.6c0-3,2.4-5.4,5.4-5.4h149.7c3,0,5.4,2.4,5.4,5.4v5.6      C718.9,195.8,716.5,198.2,713.5,198.2z"></path>				</g>				<g>					<path class="st0" d="M754.3,198.2h-19.9c-3,0-5.4-2.4-5.4-5.4v-5.6c0-3,2.4-5.4,5.4-5.4h19.9c3,0,5.4,2.4,5.4,5.4v5.6      C759.7,195.8,757.2,198.2,754.3,198.2z"></path>				</g>				<g>					<path class="st0" d="M713.5,221.3H563.8c-3,0-5.4-2.4-5.4-5.4v-5.6c0-3,2.4-5.4,5.4-5.4h149.7c3,0,5.4,2.4,5.4,5.4v5.6      C718.9,218.9,716.5,221.3,713.5,221.3z"></path>				</g>				<g>					<path class="st0" d="M754.3,221.3h-19.9c-3,0-5.4-2.4-5.4-5.4v-5.6c0-3,2.4-5.4,5.4-5.4h19.9c3,0,5.4,2.4,5.4,5.4v5.6      C759.7,218.9,757.2,221.3,754.3,221.3z"></path>				</g>				<g>					<path class="st0" d="M713.5,244.4H563.8c-3,0-5.4-2.4-5.4-5.4v-5.6c0-3,2.4-5.4,5.4-5.4h149.7c3,0,5.4,2.4,5.4,5.4v5.6      C718.9,241.9,716.5,244.4,713.5,244.4z"></path>				</g>				<g>					<path class="st0" d="M754.3,244.4h-19.9c-3,0-5.4-2.4-5.4-5.4v-5.6c0-3,2.4-5.4,5.4-5.4h19.9c3,0,5.4,2.4,5.4,5.4v5.6      C759.7,241.9,757.2,244.4,754.3,244.4z"></path>				</g>				<g>					<path class="st0" d="M713.5,267.4H563.8c-3,0-5.4-2.4-5.4-5.4v-5.6c0-3,2.4-5.4,5.4-5.4h149.7c3,0,5.4,2.4,5.4,5.4v5.6      C718.9,265,716.5,267.4,713.5,267.4z"></path>				</g>				<g>					<path class="st0" d="M754.3,267.4h-19.9c-3,0-5.4-2.4-5.4-5.4v-5.6c0-3,2.4-5.4,5.4-5.4h19.9c3,0,5.4,2.4,5.4,5.4v5.6      C759.7,265,757.2,267.4,754.3,267.4z"></path>				</g>				<g>					<path class="st0" d="M713.5,290.5H563.8c-3,0-5.4-2.4-5.4-5.4v-5.6c0-3,2.4-5.4,5.4-5.4h149.7c3,0,5.4,2.4,5.4,5.4v5.6      C718.9,288.1,716.5,290.5,713.5,290.5z"></path>				</g>				<g>					<path class="st0" d="M754.3,290.5h-19.9c-3,0-5.4-2.4-5.4-5.4v-5.6c0-3,2.4-5.4,5.4-5.4h19.9c3,0,5.4,2.4,5.4,5.4v5.6      C759.7,288.1,757.2,290.5,754.3,290.5z"></path>				</g>				<g>					<path class="st0" d="M713.5,313.6H563.8c-3,0-5.4-2.4-5.4-5.4v-5.6c0-3,2.4-5.4,5.4-5.4h149.7c3,0,5.4,2.4,5.4,5.4v5.6      C718.9,311.2,716.5,313.6,713.5,313.6z"></path>				</g>				<g>					<path class="st0" d="M754.3,313.6h-19.9c-3,0-5.4-2.4-5.4-5.4v-5.6c0-3,2.4-5.4,5.4-5.4h19.9c3,0,5.4,2.4,5.4,5.4v5.6      C759.7,311.2,757.2,313.6,754.3,313.6z"></path>				</g>			</g>			<g>				<g>					<circle class="st13" cx="851.5" cy="248.1" r="49.7"></circle>				</g>				<g>					<g>						<path class="st14" d="M785.5,244.6c-0.2-0.3-2.5-26-2.5-26l6.6-0.5l1.4,28.5"></path>					</g>					<g>						<path class="st14" d="M790.5,245.4c0-0.2,0.9-24.5,0.9-24.5l6.9,0.1l-2,26.2"></path>					</g>					<g>						<path class="st14" d="M798.6,241.8c0.2-0.5,5.9-26.6,5.9-26.6l5.5,1.3l-6.8,29.9"></path>					</g>					<g>						<polyline class="st14" points="804.6,244.8 810.4,218.8 816.8,220.1 809.4,248.5       "></polyline>					</g>					<g>						<polyline class="st14" points="796.1,249.2 816.9,226.1 820.7,230.1 802.9,249.1       "></polyline>					</g>					<g>						<polyline class="st14" points="796.9,245.7 795.8,214.6 801.3,214.9 801.7,241       "></polyline>					</g>					<g>						<path class="st15" d="M808.2,273c3.1-12.4,6.1-24.8,9.2-37.2c0,0-0.3,0-5.6-0.7c-0.5,4-6.4,8.8-13.3,7.9       c-6.8-0.9-11.4-6.9-10.9-11c-5.3-0.7-5.6-0.7-5.6-0.7l-0.3,38.3c5-0.3,9.1-0.5,13.4,0.1C799.5,270.3,803.8,271.3,808.2,273z"></path>					</g>					<g>						<path class="st2" d="M796,262c-4.4-4.8-5.1-7-4.8-9.4c0.3-2.1,1.7-3.1,3.4-2.9c1.3,0.2,2.3,0.8,2.7,2.3h0.1       c0.7-1.4,1.9-1.7,3.2-1.6c1.7,0.2,2.8,1.5,2.6,3.6c-0.3,2.4-1.5,4.3-7,7.9L796,262z"></path>					</g>				</g>				<g>					<g>													<rect x="823.1" y="258.7" transform="matrix(9.232789e-02 -0.9957 0.9957 9.232789e-02 475.1979 1071.7089)" class="st16" width="4.6" height="33.1"></rect>					</g>					<g>						<path class="st14" d="M810.4,268.3c-2.8-0.3-4,1.1-4.2,2.3c-0.3,1.1,1.1,2.9,2.9,2.3c1.7-0.6,3-0.6,4.3-0.4       c1.3,0.2,1.9,1.5,6.8,2.3c5,0.7,4.7-1.2,7.7-1.1c3,0.1,4.2,0.4,6.1,1.1s9.3,3.6,9.8,0.3c0.4-3.3-2.2-3.4-3.8-3.8       C838.3,270.8,810.4,268.3,810.4,268.3z"></path>					</g>					<g>						<path class="st16" d="M842.7,271.8l-34.4-3.2c-0.6-0.1-1-0.6-1-1.2l0.2-2.5c0.1-0.6,0.6-1,1.2-1l34.4,3.2c0.6,0.1,1,0.6,1,1.2       l-0.2,2.5C843.7,271.4,843.2,271.8,842.7,271.8z"></path>					</g>					<g>						<path class="st14" d="M806.8,275.7c-0.5,0-0.8,0.2-0.7,0.4c2.3,4.5,9.5,8.3,18.3,9.1s16.6-1.6,19.7-5.6       c0.2-0.2-0.1-0.5-0.6-0.5L806.8,275.7z"></path>					</g>					<g>						<path class="st16" d="M812.7,255c0.7,1,2-0.3,2.4-1.5v-0.1C813.8,253.4,812,254,812.7,255z"></path>					</g>					<g>						<path class="st14" d="M845.6,268.2c0.5,0,0.9-0.4,0.8-0.9c-2.1-8.4-9.7-15-19.2-15.9s-18.1,4.2-21.8,12.1       c-0.2,0.5,0.1,0.9,0.6,1L845.6,268.2z"></path>					</g>					<g>						<path class="st16" d="M806.5,261c-1.2,0.4-0.1,2,0.9,2.7h0.1C807.9,262.4,807.7,260.5,806.5,261z"></path>					</g>					<g>						<path class="st16" d="M812.7,257.3c-0.9-0.8-1.8,0.8-1.9,2.1c0,0,0,0.1,0.1,0.1C812.2,259.2,813.7,258.1,812.7,257.3z"></path>					</g>					<g>						<path class="st16" d="M815.7,263.4c0.1-1.2-1.7-1-2.9-0.3c-0.1,0-0.1,0.1,0,0.1C813.8,264,815.6,264.6,815.7,263.4z"></path>					</g>					<g>						<path class="st16" d="M820.2,264.6c0.7,1,1.9-0.3,2.4-1.6v-0.1C821.3,262.9,819.5,263.6,820.2,264.6z"></path>					</g>					<g>						<path class="st16" d="M816.7,260.1c1.1,0.6,1.5-1.2,1.4-2.5c0,0,0-0.1-0.1-0.1C816.8,258.2,815.6,259.6,816.7,260.1z"></path>					</g>					<g>						<path class="st16" d="M821.1,255.1c0.9-0.9-0.7-1.8-2-2.1c0,0-0.1,0-0.1,0.1C819.3,254.4,820.2,256,821.1,255.1z"></path>					</g>					<g>						<path class="st16" d="M828.4,253.6c0-1.2-1.8-0.7-2.9,0.1c-0.1,0-0.1,0.1,0,0.1C826.6,254.4,828.4,254.8,828.4,253.6z"></path>					</g>					<g>						<path class="st16" d="M823.7,259.9c1.2,0.2,1-1.6,0.4-2.8c0-0.1-0.1-0.1-0.1,0C823.2,258,822.5,259.7,823.7,259.9z"></path>					</g>					<g>						<path class="st16" d="M829.2,262.9c0.7-1-0.9-1.7-2.2-1.8c0,0-0.1,0-0.1,0.1C827.3,262.4,828.4,263.9,829.2,262.9z"></path>					</g>					<g>						<path class="st16" d="M833.1,264.5c-0.7,1,1,1.7,2.3,1.7c0,0,0.1,0,0.1-0.1C835,264.8,833.8,263.4,833.1,264.5z"></path>					</g>					<g>						<path class="st16" d="M831.7,256.8c-1-0.7-1.7,1-1.7,2.3c0,0,0,0.1,0.1,0.1C831.3,258.8,832.7,257.5,831.7,256.8z"></path>					</g>					<g>						<path class="st16" d="M837.4,260.4c-0.1-1.2-1.8-0.7-2.9,0.1c-0.1,0-0.1,0.1,0,0.1C835.7,261.2,837.5,261.5,837.4,260.4z"></path>					</g>					<g>						<path class="st16" d="M841.7,266.6c1-0.7-0.3-2-1.5-2.4h-0.1C840.1,265.5,840.7,267.3,841.7,266.6z"></path>					</g>					<g>						<path class="st16" d="M842.3,258.5c-1.2,0-0.7,1.8,0.1,2.9c0,0.1,0.1,0.1,0.1,0C843.1,260.2,843.5,258.4,842.3,258.5z"></path>					</g>					<g>						<path class="st16" d="M834.1,253.6c-0.8,0.9,0.7,1.8,2,2.1c0,0,0.1,0,0.1-0.1C836,254.3,835,252.7,834.1,253.6z"></path>					</g>				</g>				<g>					<g>						<path class="st8" d="M830.2,220.4l6,12.2l0,0c1.2,2.5,6.3,2.6,11.3,0.1s8.1-6.5,6.8-9l0,0l-6-12.2L830.2,220.4z"></path>					</g>					<g>													<ellipse transform="matrix(0.8967 -0.4426 0.4426 0.8967 -8.9138 393.7363)" class="st2" cx="839.2" cy="216" rx="10.1" ry="5.1"></ellipse>					</g>					<g>													<rect x="832.2" y="216.4" transform="matrix(0.1161 -0.9932 0.9932 0.1161 520.4758 1021.225)" class="st14" width="3.6" height="3.6"></rect>					</g>					<g>													<rect x="833.8" y="214.3" transform="matrix(0.4852 -0.8744 0.8744 0.4852 241.198 841.9261)" class="st14" width="3.6" height="3.6"></rect>					</g>					<g>													<rect x="835.7" y="216.6" transform="matrix(0.9281 -0.3724 0.3724 0.9281 -21.082 327.5656)" class="st14" width="3.6" height="3.6"></rect>					</g>					<g>													<rect x="836.5" y="212.5" transform="matrix(0.9281 -0.3724 0.3724 0.9281 -19.49 327.601)" class="st14" width="3.6" height="3.6"></rect>					</g>					<g>													<rect x="838.2" y="215.2" transform="matrix(0.9827 -0.1853 0.1853 0.9827 -25.667 159.4162)" class="st14" width="3.6" height="3.6"></rect>					</g>					<g>													<rect x="840.6" y="214.2" transform="matrix(0.9981 -6.083361e-02 6.083361e-02 0.9981 -11.5799 51.6452)" class="st14" width="3.6" height="3.6"></rect>					</g>					<g>													<rect x="839.6" y="211.6" transform="matrix(0.695 -0.719 0.719 0.695 103.2158 670.0822)" class="st14" width="3.6" height="3.6"></rect>					</g>					<g>													<rect x="842.7" y="211.6" transform="matrix(0.8695 -0.4939 0.4939 0.8695 4.7846 444.9606)" class="st14" width="3.6" height="3.6"></rect>					</g>				</g>				<g>					<g>						<g>							<g>								<path class="st6" d="M880.4,258.8c-15.9,1.9-29.6-2.1-31.4-9c0,0.4,0.1,0.8,0.1,1.2c1.5,12.2,16,20.4,32.5,18.4         s28.7-13.5,27.2-25.6c-0.1-0.4-0.1-0.8-0.2-1.2C908.7,249.7,896.4,256.9,880.4,258.8z"></path>							</g>							<g>								<path class="st17" d="M848.9,249c0,0.3,0.1,0.5,0.1,0.7c-0.1-1.3,0-2.6,0.3-3.9C849,246.9,848.8,248,848.9,249z"></path>							</g>							<g>								<path class="st17" d="M908.7,241.8c-0.1-1.1-0.5-2-1.2-3c0.5,1.2,1,2.4,1.2,3.7C908.7,242.3,908.7,242,908.7,241.8z"></path>							</g>							<g>								<path class="st17" d="M907.5,238.8c-3.8-5.5-16.2-8.5-30.3-6.8s-25.4,7.6-27.8,13.9c-0.2,1.3-0.3,2.6-0.3,3.9         c1.7,6.9,15.4,11,31.4,9s28.3-9.1,28.3-16.3C908.4,241.2,908,240,907.5,238.8z M880.3,257.7c-15.2,1.8-28.2-1.8-29.8-8.2         c-0.1-1.2,0.1-2.4,0.3-3.6c2.3-5.8,13-11.2,26.5-12.8c13.4-1.6,25.2,1,28.8,6.1c0.5,1.1,0.9,2.2,1.1,3.4         C907.2,249.2,895.4,255.8,880.3,257.7z"></path>							</g>							<g>								<path class="st8" d="M877.9,237.8c13.4-1.6,25.2,1,28.8,6.1c0.1,0.2,0.2,0.4,0.2,0.6c0.2-0.6,0.3-1.2,0.3-1.9         c-0.2-1.2-0.6-2.3-1.1-3.4c-3.6-5.1-15.3-7.7-28.8-6.1c-13.4,1.6-24.2,7-26.5,12.8c-0.2,1.2-0.3,2.4-0.3,3.6         c0.2,0.6,0.4,1.2,0.8,1.7c0-0.2,0.1-0.4,0.1-0.6C853.7,244.9,864.4,239.5,877.9,237.8z"></path>							</g>							<g>								<path class="st14" d="M880.3,257.7c13.7-1.7,24.6-7.3,26.6-13.2c-0.1-0.2-0.2-0.4-0.2-0.6c-3.6-5.1-15.3-7.7-28.8-6.1         c-13.4,1.6-24.2,7-26.5,12.8c0,0.2-0.1,0.4-0.1,0.6C854.6,256.5,866.6,259.3,880.3,257.7z"></path>							</g>							<g>								<polygon class="st2" points="858.6,247.5 856.4,244.2 861.4,241.3 863.4,244.6         "></polygon>							</g>							<g>								<polygon class="st2" points="892.6,241.3 892.1,237.6 897.8,237.1 898.2,240.7         "></polygon>							</g>							<g>								<polygon class="st2" points="867.2,252.9 867.8,249.2 873.4,250.4 872.7,253.9         "></polygon>							</g>							<g>								<path class="st15" d="M885.3,241.6c-2.3,0-4.1,1.5-4.2,3.4l8.2,0.1C889.4,243.2,887.6,241.6,885.3,241.6z"></path>							</g>							<g>								<path class="st15" d="M896.6,246.6c-2.1,0.7-3.4,2.7-2.7,4.5l7.8-2.4C901,246.9,898.7,245.9,896.6,246.6z"></path>							</g>							<g>								<path class="st15" d="M864.7,248.2c-2,1.1-2.8,3.3-1.9,5l7.2-3.8C869.1,247.6,866.7,247.1,864.7,248.2z"></path>							</g>							<g>								<polygon class="st2" points="876.7,246.6 877.2,242.8 882.8,243.8 882.3,247.4         "></polygon>							</g>						</g>						<g>							<path class="st18" d="M884.9,249.6c3.3-1.6,6.7-1.4,7.6,0.4c0.2,0.5,0.3,1,0.2,1.5l2.3-0.8c2.8-10.3,18.3-15.8,22.1-16.3        c4.3-0.5,5.2-3.5,3.3-4.9c-2.1-1.5-6.3-0.9-13.3,3.7c-6.8,4.5-11.6,12.7-13,16c-1.7-2.1-5.6-2.3-9.4-0.5        c-3.5,1.7-5.7,4.8-5.4,7.2l1.4-0.5C879.9,253.7,881.8,251.1,884.9,249.6z"></path>						</g>					</g>					<g>						<path class="st19" d="M892.5,250c-0.9-1.8-4.3-2-7.6-0.4c-3.1,1.5-5,4.1-4.4,6l12.2-4C892.7,251,892.7,250.5,892.5,250z"></path>					</g>				</g>				<g>					<g>						<path class="st14" d="M871,268.8c6.3,4.3,16.5,5.8,20.1,6c6.8,0.5,8.7,5.5,8,8.8c-0.6,3.2-4.6,5.6-7.7,6.1       c-6.7,0.9-21.8-2.5-29-10.4c-1.9-2-4.3-4.7-3.6-8.1C859.6,267.4,863.6,263.5,871,268.8z"></path>					</g>					<g>						<g>							<path class="st15" d="M859.9,272.6c-1.1-1.1-2-2.2-2.7-3.3c-1.1-1.9-0.5-4.3,1.4-5.3s4.2-0.4,5.3,1.5        c1.4,2.4,7.4,6.6,15.7,9.6c8.1,3,15.6,3.8,19.1,2c1.9-1,4.3-0.2,5.3,1.7s0.3,4.3-1.6,5.2c-3.1,1.6-7.1,2.1-12.1,1.6        c-4-0.4-8.6-1.5-13.2-3.2c-4.3-1.6-8.5-3.6-11.9-5.8C863.1,275.4,861.3,274,859.9,272.6z"></path>						</g>					</g>					<g>						<g>							<path class="st2" d="M860.5,272c0.1-0.1,0.1-0.1,0.2-0.2c0,0,0.1-0.1,0,0s0,0,0,0c0.1-0.1,0.3-0.2,0.4-0.3        c0.3-0.2,0.5-0.4,0.8-0.5c0.6-0.3,1.1-0.6,1.7-0.9c0,0,0.1,0,0,0s0,0,0,0c0.1,0,0.1-0.1,0.2-0.1c0.2-0.1,0.3-0.1,0.5-0.2        c0.3-0.1,0.5-0.2,0.8-0.2h0.1c0,0-0.2,0,0,0c0.1,0,0.1,0,0.2,0c0.1,0,0.1,0,0.2,0h0.1c0.2,0-0.1,0,0,0s0.1,0,0.2,0h0.1        c0.1,0,0,0,0,0s0.1,0.1,0.2,0.1c0,0,0,0,0.1,0c0.2,0.1-0.1-0.1,0,0l0.1,0.1l0.1,0.1c-0.1,0-0.1-0.1,0,0c0,0,0.1,0.2,0.1,0.1        c0-0.1,0,0,0,0v0.1c0,0,0-0.2,0-0.1v0.1c0,0,0,0,0,0.1s0-0.1,0-0.1c0,0.1,0,0.1,0,0.2c0,0,0,0,0,0.1s0.1-0.2,0,0        c0,0.1-0.1,0.2-0.2,0.3c0,0.1-0.1,0.1-0.1,0.2c0,0,0.1-0.2,0-0.1c0,0,0,0.1-0.1,0.1c-0.2,0.2-0.4,0.5-0.7,0.7        c-0.5,0.6-0.9,1.2-1,2c0,0.7,0.3,1.5,1,1.8s1.4,0.2,2.1,0c0.6-0.1,1.2-0.3,1.8-0.4c0.6-0.1,1.2-0.2,1.7-0.3        c0.1,0,0.2,0,0.2,0c0.1,0,0.1,0,0,0h0.1c0.2,0,0.3,0,0.5,0c0.3,0,0.6,0,0.9,0c0.3,0,0.6,0,0.9,0c0,0,0.1,0,0,0s0,0,0,0        c0.1,0,0.1,0,0.2,0c0.1,0,0.2,0.1,0.2,0.1s-0.1-0.1-0.1,0c0,0,0.1,0,0.1,0.1c0.1,0,0,0.1-0.1,0l0.1,0.1c0,0,0.2,0.2,0.1,0.1        c-0.1-0.1,0,0,0,0.1s0.1,0.1,0.1,0.2c-0.1-0.2,0,0,0,0c0,0.1,0,0.1,0,0.2c0,0.2,0-0.1,0,0s0,0.2,0,0.2c0,0.1,0,0.1,0,0.2v0.1        c0,0,0-0.2,0,0c0,0.1,0,0.3-0.1,0.4c0,0.1-0.1,0.3-0.1,0.4c0,0.1,0,0.1-0.1,0.2c0,0.1,0.1-0.1,0,0c0,0,0,0.1-0.1,0.1        c-0.2,0.6-0.5,1.2-0.5,1.8c-0.1,0.4-0.1,0.9,0.2,1.3c0.3,0.4,0.7,0.6,1.2,0.7c0.6,0.1,1.3,0,1.9-0.2c1.1-0.3,2.2-0.7,3.3-1.3        c0.5-0.2,1-0.5,1.5-0.7c0.1-0.1,0.3-0.1,0.4-0.2c0.1,0,0.1-0.1,0.2-0.1c0,0-0.2,0.1,0,0h0.1c0.3-0.1,0.5-0.2,0.8-0.3        c0.1,0,0.3-0.1,0.4-0.1h0.1c0.1,0-0.2,0-0.1,0c0.1,0,0.1,0,0.2,0c0.1,0,0.1,0,0.2,0c0,0,0.1,0,0.2,0c0,0-0.2,0-0.1,0        c0,0,0,0,0.1,0s0.1,0,0.2,0.1c0.1,0-0.2-0.1,0,0c0.1,0,0.1,0.1,0.1,0.1c0.1,0.1-0.1,0-0.1,0l0.1,0.1l0.1,0.1        c0.1,0.1-0.1-0.2,0,0c0,0,0,0.1,0.1,0.1l0.1,0.1c0,0-0.1-0.2,0-0.1c0,0,0,0,0,0.1s0,0.2,0.1,0.3c0,0.1,0-0.2,0-0.1        c0,0,0,0,0,0.1s0,0.1,0,0.2c0,0.2,0,0.4,0,0.6c0,0.4-0.1,0.8-0.1,1.2c0,0.5,0.1,1,0.3,1.4c0.3,0.6,0.7,1.1,1.3,1.3        c0.6,0.3,1.3,0.3,2,0.2s1.3-0.5,1.8-1s0.9-1,1.3-1.6c0.1-0.1,0.2-0.3,0.3-0.4c0.1-0.1,0.1-0.1,0.2-0.2c0,0,0-0.1,0.1-0.1        c0.1-0.1-0.1,0.1,0,0c0.2-0.3,0.4-0.5,0.6-0.8c0.1-0.1,0.1-0.1,0.2-0.2c0.1-0.1,0.1,0,0,0c0,0,0,0,0.1,0l0.2-0.1        c0,0.1-0.1,0,0,0c0,0,0.2,0,0,0c-0.1,0,0,0,0.1,0s-0.1,0-0.1,0h0.1c0,0,0,0,0.1,0s-0.2-0.1-0.1,0c0.1,0,0.1,0.1,0.2,0.1        c0.2,0.1-0.1-0.1,0,0l0.1,0.1c0,0,0.2,0.2,0.1,0.1c-0.1-0.1,0,0,0,0l0.1,0.1c0.1,0.1,0.1,0.2,0.2,0.4c0,0,0,0.1,0.1,0.1        c0,0-0.1-0.2,0,0c0,0.1,0.1,0.2,0.1,0.2c0.3,0.7,0.6,1.3,1,1.8c0.5,0.6,1,1.1,1.6,1.6s1.4,0.7,2.1,0.4c0.6-0.3,0.9-1.1,1-1.8        c0.1-0.6,0-1.3-0.2-2c-0.1-0.6-0.4-1.2-0.6-1.8c-0.2-0.5-0.5-1-0.9-1.5c-0.1-0.2-0.3-0.3-0.5-0.4c-0.2,0-0.5,0-0.6,0.1        c-0.3,0.2-0.6,0.8-0.3,1.1c0.4,0.5,0.7,1,0.9,1.5v0.1c0,0-0.1-0.2,0,0c0,0.1,0.1,0.1,0.1,0.2c0.1,0.1,0.1,0.3,0.2,0.4        c0.1,0.3,0.2,0.6,0.2,0.8v0.1c0,0.1,0,0,0,0c0,0.1,0,0.1,0,0.2c0,0.2,0,0.3,0,0.5c0,0.1,0,0.3,0,0.4v0.1c0,0.1,0-0.1,0-0.1        c0,0.1,0,0.2,0,0.2c0,0.1,0,0.1,0,0.2c0,0.1,0,0,0-0.1v0.1c0,0.1-0.1,0.1-0.1,0.2c0,0.1,0.1-0.1,0.1-0.1l-0.1,0.1        c-0.1,0.1,0.2-0.1,0.1-0.1h-0.1c0-0.1,0.2-0.1,0.1,0c-0.1,0,0,0,0.1,0H898c-0.1,0,0.2,0,0.1,0H898c-0.2,0,0.1,0.1,0,0        s-0.2-0.1-0.4-0.2c0,0-0.1,0-0.1-0.1c-0.1-0.1,0.1,0.1,0,0s-0.2-0.1-0.2-0.2c-0.2-0.2-0.5-0.4-0.7-0.7c0-0.1-0.1-0.1-0.1-0.2        c-0.1-0.1,0,0,0,0.1l-0.1-0.1c-0.1-0.1-0.2-0.3-0.3-0.4c-0.1-0.1-0.2-0.3-0.2-0.4c0-0.1-0.1-0.2-0.1-0.2v-0.1        c0-0.1,0.1,0.1,0,0c-0.3-0.7-0.5-1.3-1-1.9c-0.4-0.5-1.1-0.8-1.8-0.8c-0.8,0.1-1.4,0.6-1.9,1.2c-0.2,0.3-0.5,0.6-0.7,0.9        c-0.1,0.1-0.2,0.3-0.3,0.4c0,0.1-0.1,0.1-0.1,0.2l-0.1,0.1c0.1-0.1,0-0.1,0,0c-0.2,0.2-0.4,0.5-0.6,0.7        c-0.1,0.1-0.2,0.2-0.3,0.3c0,0-0.2,0.2-0.1,0.1c0.1-0.1,0,0,0,0l-0.1,0.1c-0.1,0.1-0.2,0.2-0.4,0.2h-0.1        c-0.1,0.1,0.1-0.1,0,0c-0.1,0-0.1,0.1-0.2,0.1c-0.1,0-0.1,0-0.2,0h-0.1c0,0,0.2,0,0.1,0c-0.1,0-0.3,0-0.4,0c-0.1,0,0.2,0,0,0        c-0.1,0-0.1,0-0.2,0c-0.1,0-0.1,0-0.2-0.1c-0.1,0,0.2,0.1,0.1,0c0,0-0.1,0-0.1-0.1c-0.1,0-0.1-0.1-0.2-0.1        c-0.2-0.1,0.1,0.1,0,0l-0.1-0.1c0,0,0-0.1-0.1-0.1c-0.1-0.1,0.1,0.2,0,0c-0.1-0.1-0.1-0.2-0.1-0.2c0.1,0.2,0,0.1,0,0v-0.1        V281c0-0.2,0,0.2,0,0c0-0.1,0-0.2,0-0.3c0-0.9,0.2-1.7,0-2.6c-0.1-0.5-0.3-1-0.7-1.3c-0.5-0.5-1.2-0.7-1.8-0.7        c-1.2,0-2.3,0.6-3.4,1.1c-0.5,0.2-1,0.5-1.5,0.7c-0.3,0.1-0.5,0.2-0.8,0.3h-0.1c0,0,0.2-0.1,0.1,0c-0.1,0-0.1,0-0.2,0.1        c-0.1,0.1-0.3,0.1-0.4,0.2c-0.5,0.2-1,0.3-1.6,0.4c-0.1,0,0,0,0,0h-0.1c-0.1,0-0.1,0-0.2,0c-0.1,0-0.3,0-0.4,0h-0.1        c-0.2,0,0,0,0,0s-0.3-0.1-0.1,0c0.1,0-0.1-0.1,0,0s0,0,0,0l0.1,0.2c0,0-0.1-0.2,0-0.1c0,0.1,0,0,0,0v-0.1c0-0.1,0-0.1,0,0        v-0.1c0-0.2,0.1-0.3,0.1-0.4c0-0.1,0.1-0.3,0.1-0.4c0-0.1,0-0.1,0.1-0.2c0.1-0.1,0,0,0,0s0-0.1,0.1-0.1        c0.2-0.6,0.5-1.1,0.5-1.8c0.1-0.7,0-1.4-0.3-2.1c-0.4-0.6-1-1-1.7-1.1c-2.5-0.4-4.9,0.5-7.3,0.9c0,0-0.2,0.1-0.2,0        c0,0,0.2,0,0,0h-0.1c-0.1,0-0.1,0-0.2,0c-0.1,0,0.1,0,0.1,0h-0.1c0,0-0.1,0,0,0s0,0,0,0l-0.1-0.1c0,0,0.2,0.1,0.1,0        c-0.1-0.1,0.1,0.2,0,0c0,0,0,0,0-0.1c-0.1-0.1,0,0.1,0,0c0,0,0-0.1,0-0.2c0.1,0.1,0,0.1,0,0.1v-0.1v-0.1c0-0.1,0,0.2,0,0.1        c0-0.1,0-0.1,0-0.2c0.1-0.2-0.1,0.1,0,0c0-0.1,0.1-0.1,0.1-0.2c0,0,0-0.1,0.1-0.1c0,0,0.1-0.1,0,0s0,0,0,0l0.1-0.1        c0.4-0.5,0.9-0.9,1.2-1.4c0.3-0.6,0.5-1.3,0.3-1.9c-0.3-0.8-0.9-1.3-1.6-1.5c-0.6-0.2-1.4-0.1-2,0c-0.7,0.2-1.3,0.4-1.9,0.7        c-0.6,0.3-1.2,0.6-1.7,0.9c-0.6,0.4-1.1,0.8-1.6,1.2c-0.3,0.3-0.3,0.9,0,1.2C859.7,272.4,860.1,272.3,860.5,272L860.5,272z"></path>						</g>					</g>					<g>						<path class="st14" d="M870.8,275.5c6.6,4.4,17.5,5.9,21.3,6.1c7.2,0.4,9.1,5.7,8.4,9.2c-0.7,3.4-5,6.1-8.3,6.6       c-7.2,1.1-23.2-2.3-30.7-10.6c-1.9-2.1-4.5-5-3.7-8.6C858.7,274.2,863,270,870.8,275.5z"></path>					</g>				</g>			</g>		</g>		<g>			<g>				<g>					<ellipse class="st6" cx="739.5" cy="652.1" rx="79.6" ry="20.5"></ellipse>				</g>				<g>					<rect x="735.2" y="499.2" class="st13" width="8.6" height="153.3"></rect>				</g>				<g>					<ellipse class="st6" cx="739.5" cy="476.6" rx="115.2" ry="29.8"></ellipse>				</g>			</g>			<g>				<g>					<g>						<path class="st20" d="M678,702.9c0,0,2.3-21.8-18.2-23c-20.6-1.2-20.6-1.2-20.6-1.2l-35.5-3.3c-6.5,16.5-4.6,27.9-4.6,27.9       l-0.1,0.9h79L678,702.9L678,702.9z"></path>					</g>					<g>						<polygon class="st1" points="678,704.2 599,704.2 598.7,709.6 678,709.6       "></polygon>					</g>				</g>				<g>					<path class="st21" d="M619.4,584c-9.4,27-18.6,72.8-20,81c-1.5,8.2,4.4,12.3,13.7,13.1c9.3,0.8,23.4,2,25.3-5.7      c1.9-7.8,20.4-87.9,20.4-87.9L619.4,584z"></path>				</g>				<g>					<g>						<path class="st6" d="M701.9,363.1c-1.9,1.5-2.3,2-3.2,3.3s-1.7,2.7-2.1,4.3c-0.7,2.6,0.1,5.5,1.6,7.7c1.6,2.2,3.9,3.8,6.4,4.8       c0.3,0.1,0.5,0.2,0.7,0.4s0.3,0.5,0.3,0.7c1.1,3.8,1.9,7.6,2.4,11.5c0.2,1.6,0.3,3.3,1,4.8c0.2,0.4,0.4,0.8,0.7,1       c0.8,0.6,2.1,0.1,2.6-0.7s0.6-2,0.4-3c-0.9-4.4-1.5-5.6-2.3-9.9c-0.2-1-0.9-3-1.1-3.9c-0.3-1.1-1.8-4.9-2.2-5.8       C705.1,373.1,703.3,366.5,701.9,363.1z"></path>					</g>				</g>				<g>					<g>						<path class="st22" d="M702.2,412.1c-0.8-4.8-1.2-9.6-1.2-14.4c0-2.2,0-4.3,0.6-6.4c0.6-2.1,1.8-4.1,3.6-5.2       c0.3-0.2,0.7-0.4,1.1-0.3c0.6,0.1,1,0.8,0.9,1.4c0,0.6-0.3,1.2-0.5,1.7c-1.5,3.8,0.6,8.7,4.4,10.3c0.4,0.2,0.8,0.3,1.3,0.2       c0.4,0,0.7-0.2,1.1-0.5c1.8-1.3,2.3-3.9,1.7-6s-1.9-4-3.3-5.7c-1.4-1.7-3-3.3-4-5.3c-0.3-0.6-0.6-1.2-0.5-1.9s0.5-1.3,1.2-1.4       c0.5-0.1,1,0.2,1.4,0.5c5.5,3.7,9.2,9.8,10.2,16.4c1.1,6.5-0.4,13.4-3.5,19.2c-0.2,0.3-0.4,0.7-0.7,0.9       c-0.4,0.3-1,0.3-1.5,0.2c-2.6-0.2-5.2-0.4-7.7-0.5c-1.9-0.1-4.1-0.4-5.2-2.1"></path>					</g>				</g>				<g>					<g>						<path class="st22" d="M601.3,368.2v23.1l0.8,0.7c1.7,1.1,3.6,1.5,5.9,1.9c1.3,0.3,2.7,0.4,4.1,0.3c1.6,0,3.2-0.2,4.6-0.5       c2.2-0.6,2.7-0.9,4.4-1.7l1.3-0.7v-23.1H601.3z"></path>					</g>				</g>				<g>					<path class="st22" d="M634.8,322.5c0.3,8.7,1.1,22.4,6.4,26s3.3,6.4-0.7,6.9s-2.8,3.5-3.3,9.5c-0.6,5.9-4.2,17.3-18.3,14.6      c-12.5-2.3-13.4-4.1-13.4-4.1s-3.3-13.5-2.4-20.3c-4,1.5-9.6-3.1-7.5-8.6s9.5-4.6,12.2-4.5C610.5,342,623.8,340.1,634.8,322.5z      "></path>				</g>				<g>					<path class="st8" d="M634.8,322.2c0.1,7.6-0.3,8.5,1,13.3c2.8-3.8,12.6-22.3-2.5-28.5c-5.3-2.2-7.8,0-7.8,0s-27.2-9.9-40,5.8      c-12.7,15.7-7.9,26.8-7.8,30.5c0.1,3.6,1.7,17-6.3,39.6c10.2,4.9,30.3,3.7,36.6,0c-1.5-5-5.9-22.8-4-28.8      c-3.4,1.6-9.1-2.3-7.9-6.6s3.7-5.2,11.2-4.2C614.6,344.4,630.5,335.5,634.8,322.2z"></path>				</g>				<g>					<path class="st10" d="M623.6,345c0.3,0.2,0.8,0.2,1-0.1c0.5-0.9,1.3-1.4,2.2-1.7c0,0.3,0,0.6,0,0.8c0,0.6,0.1,1.3,0.6,1.7      c0.9,0.8,2.3,0.5,3.1-0.3c0.4-0.5,0.6-1.2,0.7-1.8c0-0.3,0-0.7,0-1c0-0.4,0-0.7-0.3-1.1c-0.5-0.6-1.3-0.4-2-0.4      c-0.7,0.1-1.4,0.2-2.1,0.4c-1.3,0.4-2.6,1.1-3.4,2.4C623.2,344.3,623.2,344.7,623.6,345z M628.4,344.7L628.4,344.7L628.4,344.7      z"></path>				</g>				<g>					<g>						<path class="st23" d="M622.3,379.8v3.6c0,0-8-1.2-12.6-5.7C615.4,379.6,622.3,379.8,622.3,379.8z"></path>					</g>				</g>				<g>					<g>						<path class="st6" d="M666.4,414.4c0.4-0.4,1.1-1,1.6-1.4c0.5,0.5,1,1.2,1.6,1.5c1.8,0.9,4-0.2,5.6-1.4c1.7-1.3,3.6-3.5,5-5.1       c0.3-0.4,0.7-0.8,0.8-1.2c0.2-0.5,0.1-1.1-0.3-1.4c-0.6-0.5-1.6-0.1-2.3,0.3c-2,1.3-4.3,3.3-6.3,4.6c-0.6,0.4-1.5,0.6-1.8,0       c-0.2-0.4,0.1-0.8,0.3-1.1c1.5-2,4-4,5.8-5.8c0.5-0.5,1-1.2,0.7-1.8c-0.2-0.5-0.9-0.7-1.4-0.6c-0.6,0.1-1,0.5-1.5,0.8       c-1.8,1.4-3.8,3.3-5.7,4.5c-0.3,0.2-0.7,0.4-1.1,0.2c-0.2-0.1-0.3-0.3-0.4-0.5c-0.3-0.9,0.3-1.9,0.9-2.6       c1.1-1.3,2.7-3.2,4.2-4.1c0.6-0.4,1.4-1,1-1.7c-0.3-0.6-1.2-0.5-1.9-0.2c-2.5,1.1-5,3.4-6.8,5.5c-0.8,0.9-1.6,2-1.8,3.2       c-0.3,1.7,1,3.2,2.3,4.3c-1.4,1.6-3.1,3.1-4.7,4.6c0.8,0.9,1.7,1.8,2.5,2.8C664,416.6,665.2,415.5,666.4,414.4z"></path>					</g>				</g>				<g>					<circle class="st24" cx="676.5" cy="399.4" r="7.1"></circle>				</g>				<g>					<g>						<g>							<path class="st25" d="M632.8,369.1c0.3-0.2,0.5-0.5,0.7-0.9c0.2-0.6,0.1-1.3-0.3-1.7c-0.4-0.5-1.5-0.5-2.4-0.9        c-1.6-0.6-3.1-1.4-4.4-2.4c-0.9-0.6-1.9-1.3-2.9-1s-1.4,1.4-1.3,2.5C625.2,365.3,630,366.9,632.8,369.1z"></path>						</g>					</g>					<g>						<g>							<path class="st24" d="M622.1,364.7c0,0.1,0,0.2,0,0.3c0.3,1.1,1,1.9,1.8,2.7c1.6,1.5,3.6,2.9,5.8,2.7        c0.8-0.1,1.7-0.4,2.4-0.8c0.2-0.1,0.5-0.3,0.7-0.5C630,366.9,625.2,365.3,622.1,364.7z"></path>						</g>					</g>				</g>				<g>					<g>						<rect x="513.7" y="615.7" class="st6" width="15.7" height="93.9"></rect>					</g>					<g>						<rect x="594.3" y="615.7" class="st6" width="15.7" height="93.9"></rect>					</g>				</g>				<g>					<ellipse class="st2" cx="676.5" cy="476.1" rx="38.1" ry="7.3"></ellipse>				</g>				<g>					<g>						<path class="st14" d="M718.5,413.9l-18.4-2.2c0,0-1.1,5.7-1.9,13c-0.2,2.1-1.2,8-1.6,10.1c-2.5,14.5-6.8,20.5-8.1,18.7       c-5.8-8.4-13.8-20.4-19.8-28.7c-1.8-2.5-3.8-4.9-5.8-7.1c-0.8-0.9-1.6-1.8-2.5-2.8c-3.2-3.5-6.7-6.8-10.4-10.2       c-8.9-8.2-20.3-12.6-32.3-14.9c-7.6-1.4-15.5-2-23.1-2.2c-0.4,0-0.8,0-1.2,0c-6.4-0.1-12.6,1-18.7,3.2       c-3.3,1.2-7.7,3.5-11.7,8.1c-5.9,6.8-9.4,19.8-11.6,28.5c-2.8,11.4-4.1,19.1-6.9,30.4c-0.2,0.8-0.7,2.6-1.4,5.3       c-4,14.8-9,29.6-12.2,44.6c23.9,6.3,60.7,13.3,88,11.5h-0.1c4.5-11.8,7.7-21.4,9.2-28.2c2-8.9,4.9-20,7.2-29.1       c1.3-5,2.4-9.3,3.1-12.3l9.5,12.3l11.5,14.8c10.6,15.6,20.6,25.6,35.4,19c5.4-2.7,7.6-4.8,12.8-13.8c5.7-9.8,6.8-18,8.8-29.7       c0.5-2.8,2.1-17.3,2.6-20.5c0.4-2.4,2.3-17.4,2.3-17.4L718.5,413.9z"></path>					</g>				</g>				<g>					<polygon class="st1" points="648.5,704.2 648.5,709.6 648.8,704.2      "></polygon>				</g>				<g>					<g>						<path class="st20" d="M727.8,702.9c0,0,2.3-21.8-18.2-23c-20.6-1.2-20.6-1.2-20.6-1.2l-35.9-0.6c-6.5,16.5-4.2,25.2-4.2,25.2       l-0.1,0.9h79V702.9z"></path>					</g>					<g>						<polygon class="st1" points="727.8,704.2 648.8,704.2 648.5,709.6 727.8,709.6       "></polygon>					</g>				</g>				<g>					<g>						<path class="st21" d="M530.8,507.7c-0.2,1-0.4,2-0.6,3c-1.5,7.7-3.3,14.1-6,23.4c-2.4,8.3-5.2,17.4-4.6,26.3       c0.7,11.1,9.5,20.6,19.8,24.9c10.3,4.3,20.6,2.9,31.8,2.5c11.3-0.4,16.9-0.5,28.1-0.7c9.9-0.2,25-1.5,34.9-1.7       c8.4-0.2,16.4-0.8,24.6-0.9c1.8,0,3.7,0,5.2,1c3,1.9,2.8,6.3,2.2,9.8c-4,24.8-9.1,47.5-15.2,71.9c-1.7,7-3.2,6.1,2.1,11       c2.3,2.2,5.5,3.1,8.7,3.7c7.4,1.4,15.1,1.2,22.3-0.6c1.8-0.4,3.7-1.1,4.9-2.4c1.1-1.3,1.6-3.1,1.9-4.7       c9.5-42.7,19-76.2,21.1-119.9c0.3-6.2,0.2-17.4-3.1-22.7c-3.1-5.1-8.8-8.1-14.7-9.4c-5.8-1.3-11.9-1-17.8-0.8       c-21.1,0.6-36.8,0.9-57.7-1.9C591.5,521,554.8,514,530.8,507.7z"></path>					</g>				</g>				<g>					<path class="st24" d="M601.6,573.4h-79.4c-10,0-18.1,8.1-18.1,18.1v0.9v7.6v13.4c0,1.3,1.1,2.4,2.4,2.4h110.7      c1.3,0,2.4-1.1,2.4-2.4V600v-7.6v-0.9C619.6,581.5,611.5,573.4,601.6,573.4z"></path>				</g>				<g>					<path class="st2" d="M646.9,709.6c-0.4-12.8,1.6-23.4,6-31.7l0.4,0.2c-4.4,8.2-6.4,18.8-6,31.5L646.9,709.6z"></path>				</g>			</g>		</g>	</g>	<g>		<polygon class="st2" points="767.7,435.4 763.1,472.9 801.8,472.9 806.5,435.4   "></polygon>	</g>	<g>		<polyline class="st10" points="803.5,459.8 820.9,459.8 801.8,472.9   "></polyline>	</g>	<g>		<g>			<path d="M792.7,463.8c-2.2-0.1-4.4-0.2-6.6-0.2c0-0.1,0.8-6.4,0.8-6.5c2.2,0.1,4.4,0.2,6.6,0.2    C793.2,459.4,793,461.6,792.7,463.8z M791.9,462.8L791.9,462.8L791.9,462.8C791.9,462.8,791.9,462.7,791.9,462.8    c0.2-1.6,0.4-3.1,0.6-4.6l0,0c-1.6-0.1-3.1-0.1-4.7-0.2c0,0.1-0.6,4.5-0.6,4.7C788.7,462.7,790.3,462.7,791.9,462.8z"></path>		</g>		<g>			<path d="M795.1,444.2C795.1,444.2,795.1,444.3,795.1,444.2c-0.3,2.2-0.5,4.3-0.8,6.4l0,0l0,0l0,0c-2.2-0.1-4.4-0.2-6.6-0.2    c0.3-2.2,0.5-4.3,0.8-6.5C788.7,444,795.1,444.2,795.1,444.2z M794.1,445.1c-0.1,0-4.5-0.2-4.7-0.2l0,0l0,0l0,0    c-0.2,1.5-0.4,3-0.6,4.6l0,0c1.6,0.1,3.1,0.1,4.7,0.2C793.7,448.2,793.9,446.7,794.1,445.1z"></path>		</g>		<g>			<path d="M775.3,443.5c0.1,0,6.5,0.2,6.6,0.2c0,0.1-0.8,6.4-0.8,6.5c-2.2-0.1-4.4-0.2-6.6-0.2    C774.8,447.8,775.1,445.7,775.3,443.5z M776.2,444.5c0,0.1-0.6,4.5-0.6,4.7c1.6,0.1,3.1,0.1,4.7,0.2c0-0.1,0.6-4.5,0.6-4.7    C779.3,444.6,777.7,444.5,776.2,444.5z"></path>		</g>		<g>			<path d="M782.7,453.1L782.7,453.1c0.6,0,1.2,0,1.7,0.1h0.1c0,0.3-0.1,0.6-0.1,0.9h0.1c0.6,0,1.1,0,1.7,0.1h0.1l0,0    c0-0.1,0-0.1,0-0.2c0-0.2,0.1-0.4,0.1-0.6v-0.1c-0.1,0-0.2,0-0.3,0s-0.2,0-0.3,0s-0.2,0-0.3,0c0-0.3,0.1-0.6,0.1-0.9    c-0.3,0-0.6,0-0.9,0c0-0.1,0.1-0.8,0.1-0.9c0.6,0,1.2,0,1.8,0.1l0,0l0,0c0,0,0,0,0-0.1c0.1-0.6,0.1-1.2,0.2-1.7l0,0    c-0.3,0-0.6,0-0.9,0c0,0.3-0.1,0.6-0.1,0.9c-0.1,0-0.8,0-0.9,0c0.1-0.6,0.2-1.2,0.2-1.8H785c-0.2,0-0.5,0-0.7,0h-0.1    c0.1-0.6,0.2-1.2,0.2-1.9l0,0c-0.3,0-0.6,0-0.9,0l0,0c0.1-0.6,0.1-1.2,0.2-1.7c0,0,0,0,0-0.1l0,0l0,0c0.3,0,0.6,0,0.9,0l0,0    c0-0.3,0.1-0.6,0.1-0.9l0,0l0,0h-0.1c-0.6,0-1.2,0-1.7-0.1l0,0c-0.2,1.5-0.4,3.1-0.6,4.6c0.3,0,0.6,0,0.9,0v0.1    c0,0.3-0.1,0.5-0.1,0.8c0,0,0,0,0,0.1l0,0c0.3,0,0.6,0,0.8,0h0.1c-0.1,0.9-0.2,1.9-0.3,2.8c-0.3,0-0.6,0-0.9,0v0.1    C782.7,452.5,782.7,452.8,782.7,453.1C782.7,453,782.7,453.1,782.7,453.1L782.7,453.1z"></path>		</g>		<g>			<path d="M776.3,458.5C776.3,458.5,776.4,458.5,776.3,458.5c0.7,0,1.2,0,1.8,0.1h0.1c0,0.3-0.1,0.6-0.1,0.9c0.2,0,0.4,0,0.6,0    c0.2,0,0.4,0,0.6,0c0.2,0,0.4,0,0.6,0c-0.1,0.6-0.2,1.2-0.2,1.9c0.2,0,0.4,0,0.6,0c0.2,0,0.4,0,0.6,0c0.2,0,0.4,0,0.6,0    s0.4,0,0.6,0c0.2,0,0.4,0,0.6,0c0,0.3-0.1,0.6-0.1,0.9l0,0c0.3,0,0.6,0,0.9,0c0-0.1,0.4-2.7,0.4-2.8c-0.3,0-0.6,0-0.9,0    c0,0.3-0.1,0.6-0.1,0.9c-0.3,0-0.6,0-0.9,0c0-0.3,0.1-0.6,0.1-0.9c-0.1,0-0.2,0-0.3,0s-0.2,0-0.3,0s-0.2,0-0.3,0    c0-0.1,0.1-0.8,0.1-0.9c0.3,0,0.6,0,0.9,0c0-0.1,0.1-0.8,0.1-0.9c-0.9,0-1.9-0.1-2.8-0.1c0-0.1,0.1-0.8,0.1-0.9    c0.2,0,0.3,0,0.5,0s0.3,0,0.5,0c0-0.3,0.1-0.6,0.1-0.9c-0.1,0-1.7-0.1-1.9-0.1c0,0.1,0,0.3-0.1,0.5c0,0.2,0,0.3-0.1,0.5    c0,0.2,0,0.3-0.1,0.5c0,0.2,0,0.3-0.1,0.5c-0.6,0-1.3,0-1.9-0.1c0,0,0,0,0,0.1C776.4,457.9,776.4,458.2,776.3,458.5L776.3,458.5    L776.3,458.5z"></path>		</g>		<g>			<path d="M775.1,452.8C775.1,452.9,775.1,452.9,775.1,452.8c-0.1,0.3-0.1,0.6-0.1,0.9c0,0,0,0,0,0.1c0.3,0,0.6,0,0.9,0    c0,0.1-0.1,0.8-0.1,0.9c-0.3,0-0.6,0-0.9,0c0,0.3-0.1,0.6-0.1,0.9c0.6,0,1.2,0,1.9,0.1c0,0.3-0.1,0.6-0.1,0.9c0.3,0,0.6,0,0.9,0    c0-0.1,0.2-1.7,0.2-1.8c-0.3,0-0.6,0-0.9,0c0-0.3,0.1-0.6,0.1-0.9c0.1,0,0.8,0,0.9,0c0,0.3-0.1,0.6-0.1,0.9c0.1,0,0.8,0.1,0.9,0    c0.2-1.2,0.3-2.5,0.5-3.7c-0.3,0-0.6,0-0.9,0c0,0.2-0.1,0.4-0.1,0.6c0,0.2-0.1,0.4-0.1,0.6c0,0.2-0.1,0.4-0.1,0.6h-0.1    C777,452.9,776.1,452.9,775.1,452.8C775.2,452.8,775.2,452.8,775.1,452.8L775.1,452.8z"></path>		</g>		<g>			<path d="M776.3,458.5L776.3,458.5c-0.3,0-0.6,0-0.9,0l0,0c-0.1,0.6-0.2,1.2-0.2,1.9c-0.1,0-0.3,0-0.4,0c-0.1,0-0.2,0-0.4,0    c-0.1,0-0.3,0-0.4,0c-0.1,0-0.2,0-0.4,0c-0.1,0-0.3,0-0.4,0c0,0.3-0.1,0.6-0.1,0.9h0.1c0.5,0,1.1,0,1.6,0.1h0.1    c0,0.3-0.1,0.6-0.1,0.9c-0.3,0-0.6,0-0.9,0c0,0.1-0.1,0.8-0.1,0.9c1.2,0,2.5,0.1,3.7,0.1c0.1-0.6,0.2-1.2,0.2-1.8    c-0.1,0-0.8-0.1-0.9,0c0,0.3-0.1,0.6-0.1,0.9c-0.3,0-0.6,0-0.9,0v-0.1c0.1-0.5,0.1-1,0.2-1.5c0.1-0.7,0.2-1.3,0.2-2    C776.3,458.6,776.3,458.5,776.3,458.5L776.3,458.5z"></path>		</g>		<g>			<path d="M782.7,453.1C782.6,453.1,782.6,453.1,782.7,453.1c-0.7,0-1.2,0-1.8-0.1h-0.1c0-0.1,0-0.2,0-0.3s0-0.2,0-0.3s0-0.2,0-0.3    s0-0.2,0-0.3s0-0.2,0-0.3s0-0.2,0-0.3c-0.3,0-0.6,0-0.9,0c0,0.1-0.5,3.6-0.5,3.7c0.3,0,0.6,0,0.9,0c0-0.3,0.1-0.6,0.1-0.9    c0.3,0,0.6,0,0.9,0c-0.1,0.9-0.2,1.9-0.3,2.8c0.1,0,1.8,0.1,1.9,0.1c0-0.3,0.1-0.6,0.1-0.9c-0.3,0-0.6,0-0.9,0    c0-0.1,0.1-0.8,0.1-0.9c0.3,0,0.6,0,0.9,0c0-0.3,0.1-0.6,0.1-0.9c-0.3,0-0.6,0-0.9,0v-0.1c0-0.2,0.1-0.5,0.1-0.7    C782.7,453.2,782.7,453.1,782.7,453.1L782.7,453.1z"></path>		</g>		<g>			<path d="M787.3,454.2c-0.3,0-0.6,0-0.9,0l0,0v0.1c-0.1,0.5-0.1,1.1-0.2,1.6v0.1l0,0h0.1c1.2,0,2.3,0.1,3.5,0.1h0.1    c0-0.3,0.1-0.6,0.1-0.9c0.3,0,0.6,0,0.9,0c0-0.3,0.1-0.6,0.1-0.9c-0.6,0-1.2,0-1.9-0.1c0,0.1,0,0.2,0,0.3s0,0.2,0,0.3    s0,0.2,0,0.3c-0.6,0-1.3,0-1.9-0.1v-0.1C787.2,454.7,787.3,454.4,787.3,454.2C787.3,454.3,787.3,454.3,787.3,454.2L787.3,454.2z"></path>		</g>		<g>			<path d="M793.7,455.4c0.1-0.6,0.2-1.2,0.2-1.9c-0.3,0-0.6,0-0.9,0c0-0.3,0.1-0.6,0.1-0.9c-0.3,0-0.6,0-0.9,0    c-0.2,1.2-0.3,2.5-0.5,3.7c0.3,0,0.6,0,0.9,0c0-0.3,0.1-0.6,0.1-0.9c0.1,0,0.2,0,0.3,0s0.2,0,0.3,0    C793.5,455.4,793.6,455.4,793.7,455.4z"></path>		</g>		<g>			<path d="M786.5,444.8L786.5,444.8c-0.6,0-1.3,0-1.9-0.1l0,0c-0.1,0.6-0.2,1.2-0.2,1.9l0,0c0.3,0,0.6,0,0.9,0    c0-0.3,0.1-0.6,0.1-0.9h0.1c0.3,0,0.5,0,0.8,0c0,0,0,0,0.1,0l0,0v-0.1C786.5,445.4,786.5,445.2,786.5,444.8    C786.5,444.9,786.5,444.9,786.5,444.8L786.5,444.8z"></path>		</g>		<g>			<path d="M788.3,453.3c0.1,0,0.1,0,0.2,0c0.2,0,0.5,0,0.7,0c0-0.1,0.2-1.7,0.2-1.9c-0.6,0-1.2,0-1.8-0.1c0,0.1-0.1,0.8-0.1,0.9    c0.3,0,0.6,0,0.9,0C788.4,452.7,788.4,453,788.3,453.3L788.3,453.3z"></path>		</g>		<g>			<path d="M775.1,452.8L775.1,452.8c0.1-0.6,0.1-1.2,0.2-1.7V451c-0.3,0-0.6,0-0.9,0c-0.1,0.6-0.2,1.2-0.2,1.8l0,0    C774.5,452.8,774.8,452.8,775.1,452.8L775.1,452.8L775.1,452.8z"></path>		</g>		<g>			<path d="M782.5,462.5c-0.6,0-1.2,0-1.9-0.1c0,0.3-0.1,0.6-0.1,0.9c0.1,0,1.8,0.1,1.9,0.1C782.4,463.1,782.4,462.8,782.5,462.5    L782.5,462.5z"></path>		</g>		<g>			<path d="M783.1,449.4c-0.3,0-0.5,0-0.8,0h-0.1c0,0.1-0.2,1.7-0.2,1.9c0.3,0,0.6,0,0.9,0v-0.1c0.1-0.5,0.1-1.1,0.2-1.6    C783.1,449.5,783.1,449.4,783.1,449.4L783.1,449.4z"></path>		</g>		<g>			<path d="M784.9,457.9c0-0.3,0.1-0.6,0.1-0.9l0,0c-0.6,0-1.2,0-1.9-0.1c0,0.3-0.1,0.6-0.1,0.9    C783.7,457.8,784.3,457.8,784.9,457.9L784.9,457.9z"></path>		</g>		<g>			<path d="M788.3,453.3L788.3,453.3c-0.3,0-0.6,0-0.8,0h-0.1v0.1c0,0.2-0.1,0.5-0.1,0.7v0.1l0,0c0.3,0,0.5,0,0.8,0h0.1    C788.2,453.9,788.3,453.6,788.3,453.3L788.3,453.3z"></path>		</g>		<g>			<path d="M784.8,458.8L784.8,458.8c0.3,0,0.6,0,0.8,0h0.1c0-0.1,0.1-0.8,0.1-0.9c-0.3,0-0.6,0-0.9,0l0,0c0,0.1,0,0.3,0,0.4    C784.8,458.4,784.8,458.6,784.8,458.8L784.8,458.8z"></path>		</g>		<g>			<path d="M776.2,451.9c0.3,0,0.6,0,0.9,0c0-0.3,0.1-0.6,0.1-0.9c-0.1,0-0.8-0.1-0.9,0C776.3,451.3,776.2,451.6,776.2,451.9z"></path>		</g>		<g>			<path d="M786.1,456.1c-0.1,0-0.3,0-0.4,0c-0.2,0-0.4,0-0.6,0l0,0c0,0.3-0.1,0.5-0.1,0.8v0.1c0.3,0,0.6,0,0.9,0v-0.1    C786,456.6,786,456.4,786.1,456.1L786.1,456.1L786.1,456.1z"></path>		</g>		<g>			<path d="M787.1,447.7c-0.3,0-0.6,0-0.9,0c0,0.3-0.1,0.6-0.1,0.9c0.3,0,0.6,0,0.9,0C787,448.3,787.1,448,787.1,447.7z"></path>		</g>		<g>			<path d="M786.4,445.8L786.4,445.8c0,0.3-0.1,0.6-0.1,0.8v0.1c0.3,0,0.6,0,0.9,0c0-0.3,0.1-0.6,0.1-0.9c0,0,0,0-0.1,0    C787,445.8,786.8,445.8,786.4,445.8C786.5,445.8,786.4,445.8,786.4,445.8L786.4,445.8z"></path>		</g>		<g>			<path d="M786.5,444.8c0.3,0,0.6,0,0.9,0c0-0.3,0.1-0.6,0.1-0.9c-0.3,0-0.6,0-0.9,0v0.1c0,0.2-0.1,0.5-0.1,0.7    C786.5,444.8,786.5,444.8,786.5,444.8L786.5,444.8z"></path>		</g>		<g>			<path d="M785.1,456c0-0.3,0.1-0.6,0.1-0.9c-0.1,0-0.8-0.1-0.9,0c0,0.3-0.1,0.6-0.1,0.9C784.5,456,784.8,456,785.1,456L785.1,456z    "></path>		</g>		<g>			<path d="M784.3,462.5c-0.3,0-0.6,0-0.9,0c0,0.1-0.1,0.8-0.1,0.9c0.3,0,0.6,0,0.9,0C784.3,463.1,784.3,462.8,784.3,462.5z"></path>		</g>		<g>			<path d="M790.3,452.5c0,0.3-0.1,0.6-0.1,0.9c0.1,0,0.7,0.1,0.9,0c0-0.1,0.1-0.7,0.1-0.9C791.2,452.5,790.5,452.5,790.3,452.5z"></path>		</g>		<g>			<path d="M774.7,456.6c0,0.3-0.1,0.6-0.1,0.9c0.3,0,0.6,0,0.9,0c0-0.1,0.1-0.8,0.1-0.9C775.5,456.6,774.8,456.6,774.7,456.6z"></path>		</g>		<g>			<path d="M784.8,458.8c-0.1,0-0.1,0-0.2,0c-0.2,0-0.4,0-0.6,0h-0.1c0,0.1-0.1,0.8-0.1,0.9c0.3,0,0.6,0,0.9,0    C784.7,459.4,784.8,459.1,784.8,458.8L784.8,458.8z"></path>		</g>		<g>			<path d="M778.7,462.3c0.3,0,0.6,0,0.9,0c0-0.1,0.1-0.8,0.1-0.9c-0.1,0-0.8-0.1-0.9,0C778.8,461.7,778.7,462,778.7,462.3z"></path>		</g>		<g>			<path d="M791.1,461.8c0.1-0.9,0.2-1.8,0.3-2.8c-0.1,0-2.7-0.1-2.8-0.1c0,0.1-0.4,2.7-0.3,2.8    C789.2,461.8,790.1,461.8,791.1,461.8z"></path>		</g>		<g>			<path d="M790.2,445.9c-0.1,0.9-0.2,1.8-0.3,2.8c0.9,0,1.9,0.1,2.8,0.1c0-0.1,0.3-2.6,0.4-2.8C792.9,446,790.3,445.9,790.2,445.9z    "></path>		</g>		<g>			<path d="M779.5,448.3c0.1-0.9,0.2-1.8,0.3-2.8c-0.1,0-2.7-0.1-2.8-0.1c-0.1,0.9-0.2,1.8-0.3,2.8    C777.6,448.2,778.5,448.3,779.5,448.3z"></path>		</g>	</g></g><g>	<path class="st4" d="M958,433.4c-3.6-0.9-8.6,1.7-10.5,4.9c-1.8,3.2-1.7,7.3-0.2,10.6c1.6,3.3,4.5,5.9,7.8,7.5  c2.2,1.1,5,1.7,6.8,0.2"></path></g><g>	<path class="st4" d="M1029.8,432.1c2.4,0.3,4.6,1.5,6.3,3.2c3.8,3.7,4.9,10,2.3,14.6s-9.1,6.7-13.7,4.2"></path></g><g>	<g>		<path class="st1" d="M1098.5,597c-10.8-39.7-32.7-78.1-66.2-94.4c-22.4-10.9-48.4-11.5-71.2-1.7s-42,29.9-52.5,54.9   c-5.3,12.5-8.4,29.9-11.5,43.3L1098.5,597z"></path>	</g></g><g>	<g>		<rect x="864.5" y="665.8" class="st26" width="257.3" height="236.7"></rect>	</g>	<g>		<path class="st13" d="M1127.7,665.8H858.6c-3.1,0-5.5-2.5-5.5-5.5v-58.9c0-3.1,2.5-5.5,5.5-5.5h269.1c3.1,0,5.5,2.5,5.5,5.5v58.9   C1133.2,663.3,1130.8,665.8,1127.7,665.8z"></path>	</g></g><g>	<path class="st4" d="M974.1,467.1l-0.4,34.2h0.1c2.6,2.6,5.9,4.7,9.5,5.8c2.8,0.8,5.8,1,8.8,1.1c2.8,0.1,6.8-0.3,9.5-0.9  c4.2-1,6.7-1.6,10.2-5.4l0,0l0.4-34.2L974.1,467.1z"></path></g><g>	<path class="st27" d="M1076.4,582.3h-81.6c-5.3,0-9.6-4.3-9.6-9.6v-46.8c0-5.3,4.3-9.6,9.6-9.6h81.6c5.3,0,9.6,4.3,9.6,9.6v46.8  C1086.1,578,1081.8,582.3,1076.4,582.3z"></path></g><g>	<circle class="st10" cx="1035.6" cy="544.4" r="14.8"></circle></g><g>	<polygon class="st6" points="1045.7,595.8 1025.6,595.8 1029.6,541.4 1041.7,541.4  "></polygon></g><g>	<path class="st4" d="M955.2,420.6c2.6,20,4.7,66,36.9,66.5c32.2,0.4,39.9-42.9,39.5-71c-0.1-9.1-6-22.7-18.3-19.8  C998.7,397.5,944.6,382.3,955.2,420.6z"></path></g><g>	<g>		<path class="st10" d="M994.1,432.3c-0.6,5.8,0.7,11.7,3.6,16.7c1,1.7,3.3,4.4,0.9,6c-2,1.3-4.2-0.6-4.7-2.5   c-0.5-1.7-3.1-1-2.7,0.7c0.6,2.2,2.3,4.3,4.7,4.8c2.2,0.5,4.8-0.4,5.9-2.5c1.4-2.5,0.1-5-1.3-7.1c-1.4-2.2-2.4-4.6-3.1-7.1   c-0.7-2.9-0.9-5.9-0.6-8.9c0.1-0.7-0.7-1.4-1.4-1.4S994.2,431.6,994.1,432.3L994.1,432.3z"></path>	</g></g><g>	<g>		<path class="st10" d="M995.2,475.3c4.9,0.4,9.8-2.1,12.4-6.3c0.9-1.5-1.4-2.9-2.4-1.4c-2.1,3.4-6.1,5.3-10,4.9   c-0.7-0.1-1.4,0.7-1.4,1.4C993.8,474.7,994.4,475.3,995.2,475.3L995.2,475.3z"></path>	</g></g><g>	<path class="st10" d="M946.7,409.8c-2.7,5.5-2.7,12.3-0.1,17.9c2.7,5.6,5.9,7.8,11.9,9.1c-3.5-9.8-3.7-19.5-0.3-29.9  c0.8-2.4,1.8-4.8,3.7-6.5c4.1-3.6,10.6-2.5,15.3,0.2c4.7,2.8,8.5,6.9,13.3,9.4c6.1,3.2,13.7,3.6,20.1,0.9c-1.2-1.1-2.1-2.6-2.5-4.2  c6.7,3,14.3,4.1,21.5,2.9c0.8,8.2,1,16.4,0.4,24.6c3.9-3.1,5.6-8.2,6.4-13.1c0.9-5.4,0.9-10.9,0.9-16.4c1.1,0,2.2,0.5,2.9,1.2  c0.2-4.3-1-7.8-4.3-12c-2.8-3.5-5.2-5.4-9.5-6.7c1.5-0.8,3.9-0.5,7.7-1.1c-5.5-3.3-9.7-6.7-15.8-7.7c0.7-1.3,4.1-3.6,5.5-4  c-5.3-4-12.6-4.9-18.1-5.9c-4.5-0.9-9.1-1.3-13.7-1.2c0.2-0.8,1.5-3.7,1.7-4.5c-5.2,3.4-13.2,4.1-19.4,5.2  c-7.6,1.3-24.4,6.6-27.8,13.5C943.5,388.6,943.8,402.7,946.7,409.8"></path></g><g>	<path class="st10" d="M970.6,436c0.5,0.5,1.5,0.5,1.9-0.1c1.1-1.5,2.7-2.3,4.4-2.7c-0.1,0.5-0.2,1-0.2,1.6c-0.1,1.2,0,2.4,0.8,3.4  c1.5,1.7,4.2,1.4,5.8,0c0.9-0.8,1.4-2.1,1.6-3.2c0.1-0.6,0.2-1.3,0.2-1.9c0-0.7,0.1-1.4-0.3-2c-0.7-1.3-2.3-1.1-3.6-1.1  c-1.4,0-2.7,0.1-4,0.3c-2.6,0.5-5.1,1.6-6.7,3.7C970.1,434.7,970,435.5,970.6,436z M979.7,436.4  C979.6,436.4,979.6,436.4,979.7,436.4C979.6,436.4,979.6,436.4,979.7,436.4z"></path></g><g>	<path class="st10" d="M1004.1,434.7c0.5,0.5,1.5,0.5,1.9-0.1c1.1-1.5,2.7-2.3,4.4-2.7c-0.1,0.5-0.2,1-0.2,1.6  c-0.1,1.2,0,2.4,0.8,3.4c1.5,1.7,4.2,1.4,5.8,0c0.9-0.8,1.4-2.1,1.6-3.2c0.1-0.6,0.2-1.3,0.2-1.9c0-0.7,0.1-1.4-0.3-2  c-0.7-1.3-2.3-1.1-3.6-1.1c-1.4,0-2.7,0.1-4,0.3c-2.6,0.5-5.1,1.6-6.7,3.7C1003.6,433.4,1003.6,434.1,1004.1,434.7z M1013.2,435.1  C1013.1,435.1,1013.1,435.1,1013.2,435.1C1013.1,435.1,1013.1,435.1,1013.2,435.1z"></path></g><g>	<path class="st23" d="M1012.1,479.9l-0.1,7.2c0,0-18.5,11.9-29.2-1.6C999.9,489.9,1012.1,479.9,1012.1,479.9z"></path></g><g>	<g>		<path class="st28" d="M593.7,826.4c0-153.2-124.2-277.4-277.4-277.4S39,673.2,39,826.4c0,26.4,3.7,52,10.6,76.2h533.5   C590,878.3,593.7,852.8,593.7,826.4z"></path>	</g>	<g>		<path class="st20" d="M399,504.1c0-6.9-5.3-12.5-11.8-12.5H200.9c-6.5,0-11.8,5.6-11.8,12.5v160.6v50.7v179c0,4.5,3.4,8.1,7.6,8.1   h194.6c4.2,0,7.6-3.6,7.6-8.1V715.9c0-0.2,0-0.3,0-0.5V504.1H399z"></path>	</g>	<g>		<path class="st6" d="M287,594.2h-86.2c-1.1,0-2.1-0.9-2.1-2.1v-86.2c0-1.1,0.9-2.1,2.1-2.1H287c1.1,0,2.1,0.9,2.1,2.1v86.2   C289.1,593.3,288.2,594.2,287,594.2z"></path>	</g>	<g>		<path class="st6" d="M387.2,594.2H301c-1.1,0-2.1-0.9-2.1-2.1v-86.2c0-1.1,0.9-2.1,2.1-2.1h86.2c1.1,0,2.1,0.9,2.1,2.1v86.2   C389.3,593.3,388.4,594.2,387.2,594.2z"></path>	</g>	<g>		<path class="st6" d="M287,694.4h-86.2c-1.1,0-2.1-0.9-2.1-2.1v-86.2c0-1.1,0.9-2.1,2.1-2.1H287c1.1,0,2.1,0.9,2.1,2.1v86.2   C289.1,693.5,288.2,694.4,287,694.4z"></path>	</g>	<g>		<path class="st6" d="M287,793.9h-86.2c-1.1,0-2.1-0.9-2.1-2.1v-86.2c0-1.1,0.9-2.1,2.1-2.1H287c1.1,0,2.1,0.9,2.1,2.1v86.2   C289.1,792.9,288.2,793.9,287,793.9z"></path>	</g>	<g>		<path class="st6" d="M387.2,793.9H301c-1.1,0-2.1-0.9-2.1-2.1v-86.2c0-1.1,0.9-2.1,2.1-2.1h86.2c1.1,0,2.1,0.9,2.1,2.1v86.2   C389.3,792.9,388.4,793.9,387.2,793.9z"></path>	</g>	<g>		<path class="st6" d="M287,893h-86.2c-1.1,0-2.1-0.9-2.1-2.1v-86.2c0-1.1,0.9-2.1,2.1-2.1H287c1.1,0,2.1,0.9,2.1,2.1v86.2   C289.1,892.1,288.2,893,287,893z"></path>	</g>	<g>		<path class="st6" d="M387.2,694.4H301c-1.1,0-2.1-0.9-2.1-2.1v-86.2c0-1.1,0.9-2.1,2.1-2.1h86.2c1.1,0,2.1,0.9,2.1,2.1v86.2   C389.3,693.5,388.4,694.4,387.2,694.4z"></path>	</g>	<g>		<polygon class="st24" points="335.8,543.5 324.9,543.5 314.1,543.5 318.6,594.2 324.9,594.2 335.8,594.2 342.2,594.2 346.6,543.5      "></polygon>	</g>	<g>		<g>			<path class="st2" d="M331.3,539.4h-1.8h-16.4c-0.2,0-0.3,0.2-0.3,0.5l0.4,3.3c0,0.2,0.2,0.3,0.3,0.3h16h1.8h16    c0.2,0,0.3-0.1,0.3-0.3l0.4-3.3c0.1-0.2-0.1-0.5-0.3-0.5H331.3z"></path>		</g>		<g>			<path class="st2" d="M328.5,539.4v-14.8c0-0.2,0.2-0.3,0.3-0.3l14.5,3.2l-0.5,2.4l-11.6-2.6v12.1L328.5,539.4L328.5,539.4z"></path>		</g>		<g>			<polygon class="st2" points="314.7,557.5 346.1,557.5 344.5,575.5 316.3,575.5    "></polygon>		</g>	</g>	<g>		<g>			<rect x="343.2" y="581.9" class="st16" width="32.6" height="4.6"></rect>		</g>		<g>			<path class="st14" d="M344.1,578.8c-2.8,0-3.8,1.5-4,2.6c-0.2,1.2,1.4,2.7,3,2s2.9-0.9,4.1-0.7c1.3,0.1,2,1.3,6.9,1.6    s4.5-1.6,7.5-1.8s4.1,0,6.1,0.5s9.5,2.7,9.6-0.6s-2.4-3.1-4.1-3.4C371.7,578.7,344.1,578.8,344.1,578.8z"></path>		</g>		<g>			<path class="st16" d="M376.1,579.3h-34c-0.6,0-1.1-0.5-1.1-1.1v-2.4c0-0.6,0.5-1.1,1.1-1.1h34c0.6,0,1.1,0.5,1.1,1.1v2.4    C377.1,578.8,376.6,579.3,376.1,579.3z"></path>		</g>		<g>			<path class="st14" d="M341.2,586.4c-0.5,0-0.8,0.2-0.6,0.5c2.7,4.2,10.1,7.3,18.8,7.3s16.2-3,18.8-7.3c0.1-0.2-0.2-0.5-0.6-0.5    H341.2z"></path>		</g>		<g>			<path class="st14" d="M378.7,576c0.5,0,0.8-0.5,0.7-0.9c-2.9-8-10.9-13.8-20.3-13.8s-17.4,5.8-20.3,13.8    c-0.1,0.5,0.2,0.9,0.7,0.9H378.7z"></path>		</g>	</g>	<g>		<path class="st29" d="M389.3,505.9l67.6,29.7c1.8,0.8,3,2.6,3,4.6v76.2c0,3.6-3.8,6.1-7.1,4.6l-63.6-28.8"></path>	</g>	<g>		<rect x="309.9" y="723.8" class="st4" width="37.1" height="30.7"></rect>	</g>	<g>		<g>			<path class="st4" d="M404.7,579c-0.3-7.8-3-15.4-7.1-22.2c-0.9-1.4-1.8-2.9-3.2-3.9c-1.4-1-3.3-1.3-4.8-0.4    c-0.9,0.5-1.7,1.4-2.7,1.1c-0.4-0.2-0.7-0.5-0.9-0.9c-3-4-6.1-8-9.1-12c-1-1.3-2.3-2.8-4-2.5c-1.3,0.2-2.1,1.5-2.2,2.8    s0.4,2.5,0.8,3.7c0.5,1.3,1.1,2.5,1.7,3.7c-0.8-0.2-1.6-0.4-2.5-0.4c-1-0.1-2.3,0.2-2.7,1.1c-0.3,0.6,0,1.4,0.4,1.9    s1.1,0.8,1.7,1.1c1.9,0.9,3.9,1.4,6,1.7c0.2,0.4,0.5,0.8,0.7,1.2c2.6,4,5.7,8.4,4.7,13.1c-0.1,0.4-0.2,0.7-0.4,1    c-0.9,0.9-2.4-0.1-3.2-1.1c-1.8-2.2-3.5-4.3-5.3-6.5c-0.7-0.8-1.5-1.8-2.6-1.7c-1.8,0.1-2.3,2.4-2.1,4.2c0.4,4.5,2.2,8.7,4,12.8    c1.3,3.1,2.7,6.3,4.7,9.1s4.7,5.1,8,6.1l0.9-0.1c3.6,1.8,8,0.7,11.6-1.1c2.7-1.3,5.4-3.2,6.7-6    C404.7,583.1,404.8,581.1,404.7,579z"></path>		</g>	</g>	<g>		<g>			<path class="st8" d="M313.3,635.2c-10.7,2.1-18.5,6.5-21.5,17.2c-1,3.6-1.3,7.6-3.2,10.8c-3.2,5.2-9.9,6.8-13.3,11.8    c-4.1,6.1-1.8,14.9-4.8,21.7c-1.2,2.7-3.1,4.8-4.8,7.1c-2.6,3.6-4.9,7.6-5.7,12.1s-0.1,9.5,2.6,13s7.5,5.3,11.4,3.5    c2-0.9,3.6-2.7,5.6-3.7c4.6-2.5,10.2-0.6,14.9,1.6c4.7,2.3,9.6,5,14.8,4.3c6.4-0.9,11.5-7,18-7.7c8.7-0.9,16.7,8.5,25.1,6.1    c5.1-1.5,9-7,14.3-6.7c2.5,0.1,4.7,1.6,6.9,2.9c4.1,2.4,9.4,4.3,13.3,1.4c2.8-2.1,3.8-6.1,4.3-9.8c1.2-10.2-0.5-20.5-2.7-30.6    c-2.6-11.9-6.1-23.8-12.4-34c-6.8-11-16.8-19.7-28.3-24.4c-4.7-1.9-9.8-3.2-14.8-2.6c-5,0.6-7.2,3-9.7,7.7    C322.4,636.8,318.2,634.5,313.3,635.2z"></path>		</g>	</g>	<g>		<g>			<g>				<path class="st1" d="M439.1,750.1c-0.3-38.1-2.9-76.5-10.6-113.7c-2.1-10-4.5-20-7.3-29.8c-2-7.1-4.3-14.1-6.8-21.1     c-0.4-1.2-0.9-2.5-2-3.2c-1.3-0.8-3-0.5-4.5-0.2c-1.1,0.3-2.2,0.6-3.3,0.9c-1.8,0.5-3.7,1.1-5.5,1.7c-3.3,1.1-6.5,2.3-9.7,3.7     c-2.2,1-4.4,2-6.5,3.1c-1.6,0.8-3.1,1.6-4.7,2.5c0,0.1,0,0.2,0.1,0.3c0.7,3.3,1.4,6.6,2.1,9.9c5.9,29.1,8.8,58.9,8.7,88.6     c0,0.2,0.1,0.4,0.1,0.5s-0.1,0.1-0.1,0.2c0,4.4-0.1,8.8-0.3,13.3c-0.2,6.3-0.7,12.6-1.3,18.9c-0.2,1.8-0.5,3.6-0.9,5.5     c-1.6,7.3-5,14.4-11.9,15.7c-2.4,0.5-4.8,0.1-7.2-0.2c-6.8-1-13.6-1.9-20.4-2.6c-12.3-1.4-24.7-2.2-37.1-1.4     c-0.4,0-0.8,0-1.2,0.1c-19.6,1.4-39.4,7-54.8,19.1c-16.7,13.2-27.1,33.1-32.5,53.7s-4.8,65.9-5.7,87.2h164.4     c20.4,0,33.3,0,44.9,0c1.1-3.1,4.8-26.3,5.5-29.5c2-10.1,3.4-23.7,5-33.5C439,817.8,439.2,772.1,439.1,750.1z"></path>			</g>		</g>	</g></g><g>	<g>		<g>			<path class="st30" d="M1187.7,443.6c-1.3-6.1-4.3-14.9-8.4-20.3c-7.2-9.4-16.8-14.8-28.7-20.1c-11.9-5.3-27.8-5.2-40-2.3    c-13.2,3.1-23,11.7-28.8,21.7c-16.7,28.7-19.9,69.4-18.2,102.8c0.2,3.3,3,5.8,6.3,5.6c14-0.9,28-2.9,41.6-5.9    c13.8-3.1,27.5-7.4,39.3-14.7C1170.3,498.1,1192.8,467.7,1187.7,443.6z"></path>		</g>	</g>	<g>		<g>			<g>				<path class="st2" d="M1083.8,443.8c0.4,12.1,0.3,24.2-0.4,36.4c0,0.5,0.5,1,1,1c27-0.1,54.1-0.2,81.1-0.3c0.7,0,1.3-0.9,0.9-1.5     c-1.5-2-3.7-2.5-6-3.4c-3.8-1.5-7.6-3.1-11.4-4.8c-7.3-3.2-14.5-6.5-21.7-9.8c-14-6.4-28-12.9-42.3-18.6     c-1.2-0.5-1.7,1.5-0.5,1.9c13.9,5.5,27.5,11.8,41.1,18.1c6.5,3,13,6,19.6,8.9c3,1.3,5.9,2.6,8.9,3.8c3,1.3,8.7,2.3,10.6,4.9     c0.3-0.5,0.6-1,0.9-1.5c-27,0.1-54.1,0.2-81.1,0.3c0.3,0.3,0.7,0.7,1,1c0.6-12.1,0.7-24.2,0.4-36.4     C1085.7,442.5,1083.7,442.5,1083.8,443.8L1083.8,443.8z"></path>			</g>		</g>		<g>			<g>				<rect x="1090.8" y="447.6" class="st15" width="9.7" height="33.6"></rect>			</g>			<g>				<rect x="1105.4" y="468.7" class="st15" width="9.7" height="12.5"></rect>			</g>			<g>				<rect x="1120" y="456.2" class="st15" width="9.7" height="25"></rect>			</g>			<g>				<rect x="1134.6" y="447.6" class="st15" width="9.7" height="33.6"></rect>			</g>			<g>				<rect x="1149.3" y="455" class="st15" width="9.7" height="26.2"></rect>			</g>		</g>	</g></g><g>	<g>		<g>			<path class="st31" d="M1309.8,840.5c0,0,2.9-30.7-22.6-32.4c-25.5-1.7-25.5-1.7-25.5-1.7l-44-4.6c-8.1,23.2-5.7,39.2-5.7,39.2    l-0.1,1.2h97.9L1309.8,840.5L1309.8,840.5z"></path>		</g>		<g>			<polygon class="st13" points="1309.8,842.3 1211.9,842.3 1211.5,850 1309.8,850    "></polygon>		</g>	</g>	<g>		<g>			<path class="st31" d="M1376.4,840.5c0,0,2.9-30.7-22.6-32.4c-25.5-1.7-25.5-1.7-25.5-1.7l-60.5-0.9c-8.1,23.2-5.2,35.5-5.2,35.5    l-0.1,1.2h113.9L1376.4,840.5L1376.4,840.5z"></path>		</g>		<g>			<polygon class="st13" points="1376.4,842.3 1262.5,842.3 1262.1,850 1376.4,850    "></polygon>		</g>	</g>	<g>		<g>			<polygon class="st8" points="1220,517.7 1211.5,808.3 1350.4,808.3 1339.9,516.8    "></polygon>		</g>		<g>			<path class="st31" d="M1667.1,556.5h-328.7c-11.7,0-21.1-9.5-21.1-21.1v-64.8c0-11.7,9.5-21.1,21.1-21.1h328.7    c11.7,0,21.1,9.5,21.1,21.1v64.8C1688.2,547,1678.8,556.5,1667.1,556.5z"></path>		</g>		<g>			<path class="st32" d="M1506.6,417.5c-7.4,45.5-24.9,42.3-68.8,47.5v-44.1"></path>		</g>		<g>			<g>				<g>					<path class="st27" d="M1607.2,206.4h-140.4c-11.3,0-20.5-9.2-20.5-20.5V91.5c0-11.3,9.2-20.5,20.5-20.5h140.4      c11.3,0,20.5,9.2,20.5,20.5v94.4C1627.8,197.2,1618.6,206.4,1607.2,206.4z"></path>				</g>				<g>					<path class="st2" d="M1604.9,198.1h-135.8c-8.2,0-14.8-6.6-14.8-14.8V94.1c0-8.2,6.6-14.8,14.8-14.8h135.8      c8.2,0,14.8,6.6,14.8,14.8v89.2C1619.8,191.5,1613.1,198.1,1604.9,198.1z"></path>				</g>			</g>			<g>				<path class="st0" d="M1518.6,105.9h-49.2c-1.5,0-2.7-1.2-2.7-2.7v-6.1c0-1.5,1.2-2.7,2.7-2.7h49.2c1.5,0,2.7,1.2,2.7,2.7v6.1     C1521.3,104.7,1520.1,105.9,1518.6,105.9z"></path>			</g>			<g>				<path class="st33" d="M1518.6,121.4h-49.2c-1.5,0-2.7-1.2-2.7-2.7v-6.1c0-1.5,1.2-2.7,2.7-2.7h49.2c1.5,0,2.7,1.2,2.7,2.7v6.1     C1521.3,120.1,1520.1,121.4,1518.6,121.4z"></path>			</g>			<g>				<path class="st0" d="M1518.6,136.8h-49.2c-1.5,0-2.7-1.2-2.7-2.7V128c0-1.5,1.2-2.7,2.7-2.7h49.2c1.5,0,2.7,1.2,2.7,2.7v6.1     C1521.3,135.6,1520.1,136.8,1518.6,136.8z"></path>			</g>			<g>				<path class="st0" d="M1518.6,152.2h-49.2c-1.5,0-2.7-1.2-2.7-2.7v-6.1c0-1.5,1.2-2.7,2.7-2.7h49.2c1.5,0,2.7,1.2,2.7,2.7v6.1     C1521.3,151,1520.1,152.2,1518.6,152.2z"></path>			</g>			<g>				<path class="st33" d="M1518.6,167.6h-49.2c-1.5,0-2.7-1.2-2.7-2.7v-6.1c0-1.5,1.2-2.7,2.7-2.7h49.2c1.5,0,2.7,1.2,2.7,2.7v6.1     C1521.3,166.4,1520.1,167.6,1518.6,167.6z"></path>			</g>			<g>				<path class="st33" d="M1518.6,183h-49.2c-1.5,0-2.7-1.2-2.7-2.7v-6.1c0-1.5,1.2-2.7,2.7-2.7h49.2c1.5,0,2.7,1.2,2.7,2.7v6.1     C1521.3,181.8,1520.1,183,1518.6,183z"></path>			</g>			<g>				<path class="st0" d="M1561.5,183h-25.3c-2.3,0-4.2-1.9-4.2-4.2V98.6c0-2.3,1.9-4.2,4.2-4.2h25.3c2.3,0,4.2,1.9,4.2,4.2v80.2     C1565.7,181.1,1563.8,183,1561.5,183z"></path>			</g>			<g>				<path class="st33" d="M1599.7,183h-25.2c-2.3,0-4.2-1.9-4.2-4.2V98.6c0-2.3,1.9-4.2,4.2-4.2h25.3c2.3,0,4.2,1.9,4.2,4.2v80.2     C1603.9,181.1,1602.1,183,1599.7,183z"></path>			</g>		</g>		<g>			<circle class="st24" cx="1506.6" cy="449.4" r="19"></circle>		</g>		<g>			<ellipse class="st2" cx="1435.7" cy="417.5" rx="70.9" ry="23.4"></ellipse>		</g>		<g>			<g>				<path class="st22" d="M1474.4,436.2c8.5,0.8,17,2.2,25.2,4.3c3.7,0.9,7.4,2,10.7,3.9c3.3,1.9,6.2,4.8,7.4,8.5     c0.2,0.6,0.4,1.4,0.1,2c-0.4,1-1.8,1.3-2.8,1s-1.9-1.1-2.8-1.7c-5.9-4.3-15.2-2.8-19.5,3c-0.5,0.6-0.9,1.3-1,2s0.1,1.4,0.4,2     c1.5,3.6,5.7,5.6,9.6,5.6s7.7-1.5,11.2-3.2s7-3.7,10.8-4.5c1.1-0.3,2.4-0.4,3.4,0s2,1.5,1.8,2.6c-0.1,0.9-0.8,1.6-1.5,2.2     c-8.8,7.8-21,11.3-32.6,10.3c-11.7-1.1-22.8-6.6-31.3-14.6c-0.5-0.4-1-0.9-1.2-1.5c-0.3-0.8,0-1.8,0.3-2.6     c1.5-4.3,2.9-8.7,4.4-13c1.1-3.2,2.6-6.9,5.8-7.9"></path>			</g>		</g>		<g>			<path class="st14" d="M1371.6,415c-0.3,0.7-0.4,1.5-0.4,2.2c0,11.3,29.5,20.4,65.9,20.4s65.9-9.1,65.9-20.4c0-0.2,0-0.3,0-0.5    C1457.3,403.4,1427.8,398.7,1371.6,415z"></path>		</g>		<g>			<path class="st13" d="M1503,416.7c-0.9-11-30-19.9-65.9-19.9c-34,0-61.9,8-65.5,18.2C1427.8,398.7,1457.3,403.4,1503,416.7z"></path>		</g>		<g>							<rect x="1447.4" y="403.3" transform="matrix(0.3519 -0.936 0.936 0.3519 559.5232 1621.7197)" class="st31" width="7" height="7"></rect>		</g>		<g>							<rect x="1477.1" y="417.7" transform="matrix(0.3519 -0.936 0.936 0.3519 565.2908 1658.8864)" class="st31" width="7" height="7"></rect>		</g>		<g>							<rect x="1420.6" y="415.2" transform="matrix(0.9135 -0.4069 0.4069 0.9135 -47.1504 615.6601)" class="st31" width="7" height="7"></rect>		</g>		<g>			<g>				<g>					<path class="st2" d="M1343.4,450.2l2.4,105.4h-134.3c0,0,2.6-50.9,2.8-109.5c0.1-31.8,1.8-71.7,26.8-91.4      c25-19.6,70.5-16,96,3.1c12.5,9.4,18.1,25,28.3,36.8c20.3,23.6,110.7,35.2,110.7,35.2l-7.8,49      C1468.2,478.7,1399.8,482.3,1343.4,450.2z"></path>				</g>			</g>			<g>				<g>					<path class="st10" d="M1330.5,234.2c-90-28.6-79.4,48.4-72.5,67.2c-6.8,3-11.5,9.4-11.5,16.8c0,10.3,9.2,18.7,20.5,18.7      s20.5-8.4,20.5-18.7c0-9.4-7.5-17.1-17.4-18.5l70.7-23.6C1341,276.1,1357,242.6,1330.5,234.2z"></path>				</g>				<g>					<g>						<path class="st2" d="M1347,189.2c-6.5-4.1-14.9-4.9-22.2-2.5c-0.3-5.4-2.9-10.1-6.6-14.2c-4.3-4.8-11.4-6.5-17.7-5.5       c-11.5,1.8-19.7,11.2-20.5,22.8c-4.7-3.7-11.4-4.2-17.3-3c-6.7,1.4-13.1,4.8-17.2,10.2s-5.7,12.9-3.2,19.2       c2.3,5.9,8.3,10.3,14.6,10.3v26.2h88.9v-26.1h0.1c7.1-3,11.9-10.5,12-18.2C1357.9,200.8,1353.5,193.3,1347,189.2z"></path>					</g>				</g>				<g>					<path class="st4" d="M1339,258.6c0.6,10.2,1.1,26.6,10.8,32c9.7,5.4,0.4,16.4-8.4,11.5c-2,10.8-3.5,42.4-37.5,27.7      c0,14.9,0,20,0,20s-16,5.7-29.4-5c2.3-12.6,5.1-40.3,5.1-40.3s-12.7-2.2-9.9-13.5s14.5-6.8,14.5-6.8s11.2-7.5,9.6-20.1      C1301.7,268.4,1329.9,268.8,1339,258.6z"></path>				</g>				<g>					<path class="st10" d="M1317.7,283.9c0.5,0.4,1.4,0.5,1.8,0c1-1.3,2.4-1.9,4-2.3c-0.1,0.4-0.2,0.9-0.2,1.3c-0.1,1,0,2,0.7,2.8      c1.3,1.4,3.9,1.2,5.3,0c0.8-0.7,1.3-1.7,1.5-2.7c0.1-0.5,0.2-1.1,0.2-1.6c0-0.6,0.1-1.2-0.2-1.7c-0.7-1.1-2.1-0.9-3.3-0.9      c-1.2,0-2.5,0.1-3.7,0.3c-2.4,0.4-4.7,1.3-6.2,3.1C1317.2,282.8,1317.1,283.4,1317.7,283.9z M1325.9,284.3L1325.9,284.3      L1325.9,284.3z"></path>				</g>				<g>					<g>						<path class="st10" d="M1314.4,314.3c2.5,3.5,6.3,6,10.9,6.8c1.4,0.3,2-1.7,0.6-2c-4-0.7-7.3-2.8-9.5-5.9       C1315.6,312.2,1313.7,313.2,1314.4,314.3L1314.4,314.3z"></path>					</g>				</g>			</g>			<g>				<g>					<path class="st23" d="M1303.9,329.8v5c0,0-12.4-5.9-15.2-12.7C1293.7,326.1,1303.9,329.8,1303.9,329.8z"></path>				</g>			</g>		</g>		<g>			<path class="st2" d="M1270.2,808.3h-2V599c-2.2-2.6-17.2-21.5-10.6-42.8l1.9,0.6c-6.8,21.7,10.2,40.9,10.4,41.1l0.3,0.3V808.3z"></path>		</g>		<g>			<path class="st2" d="M1624.1,520h-69.7c-4.6,0-8.1-4.2-7.3-8.7l7.6-42.9c0.6-3.5,3.7-6.1,7.3-6.1h69.7c4.6,0,8.1,4.2,7.3,8.7    l-7.6,42.9C1630.8,517.4,1627.7,520,1624.1,520z"></path>		</g>		<g>			<polygon class="st8" points="1642.3,491.1 1600.4,533.6 1605.5,538.5 1621.3,520.5 1633.9,532.4 1655.2,505.8    "></polygon>		</g>		<g>			<circle class="st24" cx="1510.4" cy="505.2" r="17.8"></circle>		</g>		<g>			<circle class="st24" cx="1546" cy="487.4" r="17.8"></circle>		</g>		<g>			<g>				<path class="st24" d="M1604.2,480.3c0,0,2.6,11.3-8.9,15.7c-11.7,4.4-18.3-5.8-18.3-5.8L1604.2,480.3z"></path>			</g>			<g>				<path class="st34" d="M1600.2,483.7c0,0,1.6,7.1-5.6,9.8c-7.3,2.8-11.4-3.6-11.4-3.6L1600.2,483.7z"></path>			</g>		</g>		<g>			<g>				<path class="st24" d="M1623.8,490.1c0,0-1.3,11.5-13.6,11.8c-12.5,0.3-15.3-11.5-15.3-11.5L1623.8,490.1z"></path>			</g>			<g>				<path class="st34" d="M1619,492.1c0,0-0.8,7.2-8.5,7.4c-7.8,0.2-9.5-7.2-9.5-7.2L1619,492.1z"></path>			</g>		</g>	</g></g><g>	<path class="st2" d="M1067.2,822.1h-148c-10.1,0-18.2-8.2-18.2-18.2v-76c0-10.1,8.2-18.2,18.2-18.2h148c10.1,0,18.2,8.2,18.2,18.2  v76C1085.4,813.9,1077.2,822.1,1067.2,822.1z"></path></g><g>	<g>		<path class="st21" d="M938.9,780.9c11.3-8.2,22-17.3,31.7-27.4c4.9-5,9.5-10.3,13.9-15.8c3.2-4,6.5-8.3,3.8-13.5   c-0.6-1.1-2.2-1.8-3.4-1.4c-13,4.7-21.7,18.5-28,30.1c-3.6,6.6-6.5,13.6-8.7,20.8c-2.2,7.1-4.7,15.3-4.1,22.8   c0.5,5.5,3.7,10.8,9.4,12c6.3,1.3,13.6-2.1,18.9-5.2c13.6-7.9,25.8-18.9,36.7-30.2c-1.7-0.7-3.4-1.4-5.1-2.1   c0.3,3.4,0.6,6.7,1,10.1c0.2,2,0.1,4.7,1.4,6.4c3,3.8,7.6,1.1,10.7-1c4.7-3.2,9-7,13.3-10.8c2-1.8,4-3.7,6.1-5.5   c1.2-1.1,2.5-2.1,3.7-3.2c0.6-0.5,5-3,5.1-3.1c-1.2,3.7,4.6,5.3,5.8,1.6c1.2-3.7-1.5-7.4-5.4-7.7c-4.9-0.4-9.5,4.7-12.9,7.6   c-4.7,4.1-9.2,8.5-14.1,12.5c-1.5,1.2-3,2.3-4.6,3.4c-0.5,0.3-0.9,0.6-1.4,0.9c-1.1,1.3-1.6,1.2-1.6-0.1c-0.6-0.8-0.4-3.6-0.4-4.6   c-0.2-2.1-0.4-4.3-0.6-6.4c-0.2-2.4-3.2-4.1-5.1-2.1c-8.8,9.1-18.3,17.5-28.6,24.7c-4.9,3.4-10,6.8-15.8,8.3   c-3.5,1-7.3,1.3-9.3-2.4c-1.8-3.4-0.9-7.7-0.3-11.3c2-11.6,6.1-22.9,11.7-33.2c5.4-9.8,12.9-22.7,24-26.6   c-1.1-0.5-2.3-0.9-3.4-1.4c1.7,3.2-7.5,11.8-9.7,14.2c-3.7,4.2-7.5,8.2-11.5,12.1c-8.2,8-16.9,15.4-26.2,22.1   C932.8,777.9,935.8,783.1,938.9,780.9L938.9,780.9z"></path>	</g></g><g>	<path class="st2" d="M1265.9,850.1c-3.1-13.2-0.4-26,2.2-38.3c0.4-2.1,0.9-4.3,1.3-6.4l1,0.2c-0.4,2.1-0.8,4.2-1.3,6.4  c-2.5,12.3-5.2,24.9-2.2,37.9L1265.9,850.1z"></path></g></svg>